<svg width="454" height="195" viewBox="0 0 454 195" fill="none" xmlns="http://www.w3.org/2000/svg">
<rect x="0.53125" width="453" height="195" rx="30" fill="#00529E"/>
<g clip-path="url(#clip0_3_1154)">
<path d="M168.969 50.6698C162.108 54.1551 117.422 129.376 120.108 135.135C122.799 140.899 307.044 175.866 319.466 163.294C327.636 155.022 296.244 42.4427 290.306 38.0794C284.364 33.7161 178.956 45.5912 168.969 50.6698Z" fill="#FFF6F0"/>
<path d="M189.56 69.6897C189.688 69.334 189.812 68.9745 189.925 68.615" stroke="white" stroke-linecap="round" stroke-linejoin="round"/>
<path d="M190.531 66.4276C191.89 60.6831 191.543 54.5147 189.199 49.1107C186.407 42.666 180.694 37.4626 173.909 35.7786C167.125 34.0908 159.429 36.1646 154.725 41.3642C152.708 43.5932 151.222 46.4541 151.21 49.4702C151.203 52.4863 152.919 55.597 155.73 56.649C158.541 57.701 162.206 56.1041 162.887 53.1675C163.478 50.6244 161.777 47.9716 159.497 46.7266C157.213 45.4815 154.496 45.368 151.903 45.5156C142.235 46.0681 132.165 50.4957 127.605 59.0899C124.688 64.5847 124.331 71.0861 124.707 77.2999C124.989 81.9546 125.667 86.6622 127.601 90.9007C129.219 94.4465 131.812 97.6556 135.165 99.5591" stroke="white" stroke-linecap="round" stroke-linejoin="round" stroke-dasharray="6 6"/>
<path d="M136.166 100.081C136.504 100.24 136.854 100.388 137.208 100.52" stroke="white" stroke-linecap="round" stroke-linejoin="round"/>
<path d="M239.993 139.877C238.868 146.333 243.666 153.239 250.082 154.401C252.694 154.874 255.591 154.416 257.574 152.641C259.558 150.867 260.299 147.627 258.812 145.413C256.957 142.655 252.4 142.821 250.187 145.3C247.975 147.779 247.941 151.692 249.405 154.681C250.865 157.671 253.552 159.873 256.37 161.622C261.428 164.759 267.268 166.757 273.21 166.783C279.152 166.81 285.184 164.762 289.527 160.687C293.873 156.611 296.353 150.443 295.51 144.524" stroke="white" stroke-miterlimit="10" stroke-linecap="round" stroke-linejoin="round" stroke-dasharray="6 6"/>
<path d="M279.227 64.6339C286.949 55.4646 298.66 49.826 310.604 49.5156C315.925 49.3794 321.412 50.3103 325.935 53.1296C330.458 55.9489 333.879 60.8723 334.01 66.2271C334.071 68.6074 332.908 71.5251 330.541 71.6386C328.87 71.7181 327.44 70.2082 327.075 68.5658C326.307 65.141 329.438 61.7314 332.9 61.2507C336.359 60.7664 339.787 62.5185 342.406 64.842C344.671 66.8515 346.579 69.4248 347.162 72.4068C348.122 77.3378 345.172 82.4125 341.032 85.2243C336.893 88.036 331.783 88.9783 326.808 89.421" stroke="white" stroke-miterlimit="10" stroke-linecap="round" stroke-linejoin="round" stroke-dasharray="6 6"/>
<path d="M106.535 82.1173C106.287 82.7569 116.274 91.3889 116.613 91.2224C116.951 91.0558 130.698 77.3907 130.69 76.8345C130.683 76.2782 121.362 66.4579 120.85 66.4314C120.338 66.4049 106.768 81.5156 106.535 82.1173Z" fill="#FFF6F0"/>
<path d="M107.638 82.3671L119.966 80.0436L120.891 67.6008L118.667 78.5147L107.638 82.3671Z" fill="#F2D2B1"/>
<path d="M115.25 80.5469L116.255 89.527L116.492 80.3728L115.25 80.5469Z" fill="#F2D2B1"/>
<path d="M119.973 75.5895L128.94 76.2139L119.856 76.8421L119.973 75.5895Z" fill="#F2D2B1"/>
<path d="M260.438 38.8363C259.972 39.3358 266.03 51.0974 266.406 51.0671C266.783 51.0406 284.609 43.5212 284.808 43.0066C285.007 42.4881 280.006 29.8789 279.54 29.6594C279.077 29.4399 260.875 38.367 260.438 38.8363Z" fill="#9CB1F4"/>
<path d="M261.368 39.4796L273.665 41.9546L279.144 30.7606L273.029 40.0473L261.368 39.4796Z" fill="#8399E2"/>
<path d="M269.108 40.6489L266.704 49.3566L270.32 40.9555L269.108 40.6489Z" fill="#8399E2"/>
<path d="M275.329 37.8259L283.412 41.7692L274.753 38.9423L275.329 37.8259Z" fill="#8399E2"/>
<path d="M332.878 131.188C332.528 130.927 325.536 135.692 325.581 135.93C325.626 136.168 331.726 147.018 332.069 147.109C332.411 147.196 340.02 143.048 340.126 142.734C340.227 142.416 333.209 131.434 332.878 131.188Z" fill="#FFF6F0"/>
<path d="M332.539 131.832L331.899 139.892L339.399 142.56L333.058 139.343L332.539 131.832Z" fill="#F2D2B1"/>
<path d="M332.381 136.876L326.688 135.99L332.279 137.674L332.381 136.876Z" fill="#F2D2B1"/>
<path d="M334.639 140.645L332.746 146.121L333.886 140.361L334.639 140.645Z" fill="#F2D2B1"/>
<path d="M112.974 143.166C112.718 143.521 117.542 150.492 117.779 150.443C118.016 150.394 128.73 144.123 128.813 143.779C128.895 143.434 124.673 135.835 124.361 135.733C124.048 135.635 113.215 142.829 112.974 143.166Z" fill="#9CB1F4"/>
<path d="M113.621 143.499L121.644 144.04L124.199 136.467L121.083 142.882L113.621 143.499Z" fill="#8399E2"/>
<path d="M118.637 143.593L117.832 149.33L119.435 143.684L118.637 143.593Z" fill="#8399E2"/>
<path d="M122.359 141.277L127.827 143.109L122.084 142.034L122.359 141.277Z" fill="#8399E2"/>
<path d="M152.707 44.7601L130.936 48.2383L131.777 53.564L153.548 50.0858L152.707 44.7601Z" fill="#9E3A44"/>
<path d="M157.703 74.7706L135.435 78.3284L140.936 113.153L163.205 109.595L157.703 74.7706Z" fill="#4F2127"/>
<path d="M139.842 85.0956C139.47 85.1561 139.218 85.5043 139.278 85.8789L143.199 110.689C143.259 111.063 143.605 111.317 143.978 111.256C144.35 111.196 144.602 110.848 144.542 110.473L140.621 85.6632C140.561 85.2924 140.211 85.0388 139.842 85.0956Z" fill="#9E3A44"/>
<path d="M142.992 84.5923C142.619 84.6528 142.367 85.001 142.427 85.3756L146.349 110.185C146.409 110.56 146.755 110.814 147.128 110.753C147.5 110.693 147.752 110.344 147.692 109.97L143.771 85.1599C143.714 84.7891 143.364 84.5355 142.992 84.5923Z" fill="#9E3A44"/>
<path d="M146.145 84.089C145.773 84.1495 145.521 84.4977 145.581 84.8723L149.502 109.682C149.562 110.057 149.908 110.31 150.281 110.25C150.654 110.189 150.906 109.841 150.845 109.466L146.924 84.6566C146.864 84.2858 146.518 84.0322 146.145 84.089Z" fill="#9E3A44"/>
<path d="M149.299 83.5857C148.926 83.6462 148.674 83.9944 148.734 84.3691L152.656 109.179C152.716 109.554 153.062 109.807 153.434 109.747C153.807 109.686 154.059 109.338 153.999 108.963L150.078 84.1533C150.018 83.7825 149.668 83.5289 149.299 83.5857Z" fill="#9E3A44"/>
<path d="M152.449 83.0823C152.076 83.1429 151.824 83.491 151.884 83.8657L155.805 108.676C155.865 109.05 156.212 109.304 156.584 109.243C156.957 109.183 157.209 108.834 157.149 108.46L153.228 83.65C153.171 83.2791 152.821 83.0218 152.449 83.0823Z" fill="#9E3A44"/>
<path d="M155.602 82.579C155.229 82.6396 154.977 82.9877 155.038 83.3624L158.959 108.172C159.019 108.547 159.365 108.8 159.738 108.74C160.11 108.679 160.362 108.331 160.302 107.957L156.381 83.1467C156.321 82.7758 155.971 82.5185 155.602 82.579Z" fill="#9E3A44"/>
<path d="M159.19 75.4408L134.227 79.4291L135.148 85.2631L160.112 81.2749L159.19 75.4408Z" fill="#9E3A44"/>
<path d="M155.946 48.4023L128.976 52.7112L133.26 79.8333L160.23 75.5244L155.946 48.4023Z" fill="#F4848F"/>
<path d="M154.163 68.2988C156.458 62.9919 154.041 56.8184 148.764 54.5098C143.487 52.2013 137.348 54.632 135.052 59.9389C132.757 65.2458 135.174 71.4193 140.451 73.7278C145.728 76.0363 151.867 73.6057 154.163 68.2988Z" fill="#F2D2B1"/>
<path d="M151.974 69.496C154.927 65.4044 154.023 59.6801 149.954 56.7103C145.886 53.7406 140.193 54.65 137.24 58.7416C134.287 62.8332 135.191 68.5576 139.26 71.5273C143.329 74.4971 149.021 73.5876 151.974 69.496Z" fill="#FFE8D4"/>
<path d="M145.59 72.7039C150.304 72.159 153.686 67.8744 153.144 63.1339C152.602 58.3934 148.341 54.9923 143.627 55.5372C138.914 56.0821 135.531 60.3667 136.073 65.1072C136.615 69.8477 140.876 73.2488 145.59 72.7039Z" stroke="#192644" stroke-width="0.5" stroke-miterlimit="10" stroke-linecap="round" stroke-linejoin="round"/>
<path d="M152.708 44.7588L130.939 48.2366L133.513 37.686L147.003 35.5327L152.708 44.7588Z" fill="#F4848F"/>
<path d="M146.424 31.8558L132.934 34.0111L133.515 37.6887L147.005 35.5333L146.424 31.8558Z" fill="#9E3A44"/>
<path d="M146.424 31.8544L132.933 34.0114L136.997 23.7409L139.394 23.3586L146.424 31.8544Z" fill="#F4848F"/>
<path d="M139.256 22.4725L136.859 22.8555L136.999 23.7412L139.396 23.3583L139.256 22.4725Z" fill="#9E3A44"/>
<path d="M137.547 17.9988L137.104 18.0695L137.865 22.8869L138.308 22.8163L137.547 17.9988Z" fill="#9E3A44"/>
<path d="M155.113 48.5355L153.348 48.8193L152.494 43.4078C152.415 42.9158 152.75 42.4579 153.235 42.3784C153.724 42.299 154.18 42.6358 154.259 43.1239L155.113 48.5355Z" fill="#9E3A44"/>
<path d="M131.578 52.2971L129.814 52.5809L128.959 47.1694C128.88 46.6774 129.215 46.2195 129.701 46.14C130.19 46.0606 130.645 46.3974 130.724 46.8855L131.578 52.2971Z" fill="#9E3A44"/>
<path d="M132.88 48.7097C132.372 48.7892 132.026 49.2698 132.105 49.7806L132.282 50.8894C132.361 51.4003 132.839 51.7485 133.347 51.669C133.855 51.5895 134.201 51.1089 134.122 50.598L133.945 49.4893C133.866 48.9746 133.388 48.6264 132.88 48.7097Z" fill="#4F2127"/>
<path d="M136.504 48.1306C135.996 48.2101 135.65 48.6907 135.729 49.2015L135.906 50.3103C135.985 50.8212 136.463 51.1694 136.971 51.0899C137.479 51.0104 137.825 50.5298 137.746 50.0189L137.569 48.9101C137.49 48.3955 137.012 48.0473 136.504 48.1306Z" fill="#4F2127"/>
<path d="M140.128 47.5478C139.62 47.6273 139.274 48.1079 139.353 48.6188L139.53 49.7275C139.609 50.2384 140.087 50.5866 140.595 50.5071C141.103 50.4276 141.449 49.947 141.37 49.4362L141.193 48.3274C141.114 47.8165 140.636 47.4683 140.128 47.5478Z" fill="#4F2127"/>
<path d="M143.756 46.9688C143.248 47.0483 142.902 47.5289 142.981 48.0398L143.157 49.1486C143.236 49.6595 143.714 50.0076 144.222 49.9281C144.73 49.8487 145.077 49.3681 144.998 48.8572L144.821 47.7484C144.738 47.2375 144.264 46.8893 143.756 46.9688Z" fill="#4F2127"/>
<path d="M147.38 46.3898C146.872 46.4693 146.525 46.9499 146.604 47.4608L146.781 48.5696C146.86 49.0805 147.338 49.4286 147.846 49.3492C148.354 49.2697 148.701 48.7891 148.621 48.2782L148.445 47.1694C148.366 46.6585 147.888 46.3104 147.38 46.3898Z" fill="#4F2127"/>
<path d="M151.004 45.8109C150.496 45.8903 150.149 46.3709 150.228 46.8818L150.405 47.9906C150.484 48.5015 150.962 48.8496 151.47 48.7702C151.978 48.6907 152.324 48.2101 152.245 47.6992L152.068 46.5904C151.989 46.0795 151.512 45.7314 151.004 45.8109Z" fill="#4F2127"/>
<path d="M142.367 67.6879L144.606 64.1193L140.173 59.2413" stroke="#192644" stroke-miterlimit="10" stroke-linecap="round" stroke-linejoin="round"/>
<path opacity="0.5" d="M140.342 61.1564C141.935 57.3156 141.725 53.5729 139.874 52.7968C138.023 52.0207 135.231 54.5051 133.639 58.3459C132.047 62.1867 132.256 65.9294 134.108 66.7055C135.959 67.4816 138.75 64.9972 140.342 61.1564Z" fill="white"/>
<path d="M244.494 42.1212C244.276 42.1817 243.173 45.107 243.26 45.3302C243.35 45.5535 246.195 47.843 246.195 47.843L248.359 44.3728C248.359 44.369 244.708 42.0606 244.494 42.1212Z" fill="#FFCE33"/>
<path d="M255.219 40.9518L251.286 44.7209L248.242 43.6916L245.619 48.0738L247.666 50.0568L246.338 54.2309L248.234 55.8203L257.635 41.966L255.219 40.9518Z" fill="#576FBC"/>
<path d="M266.941 67.4078C266.941 67.4078 269.597 69.0578 270.452 68.5507C271.306 68.0436 277.553 59.9717 277.421 59.4116C277.289 58.8515 274.93 56.2631 274.93 56.2631L266.941 67.4078Z" fill="#FFCE33"/>
<path d="M247.328 57.141C248.197 52.3955 258.173 41.1561 258.173 41.1561L275.999 56.1571C273.507 62.492 267.065 68.1117 267.065 68.1117L247.328 57.141Z" fill="#9E3A44"/>
<path d="M252.581 55.2148C253.292 56.8042 267.088 64.2025 268.058 63.9035C269.029 63.6046 272.273 59.0104 272.051 58.019C271.825 57.0275 259.836 47.3851 258.489 46.9764C257.145 46.5715 252.013 53.9471 252.581 55.2148Z" fill="#F4848F"/>
<path opacity="0.5" d="M263.154 60.2876C263.788 58.9987 261.507 56.5631 258.059 54.8473C254.611 53.1316 251.302 52.7855 250.668 54.0744C250.033 55.3632 252.315 57.7988 255.763 59.5146C259.211 61.2303 262.52 61.5764 263.154 60.2876Z" fill="white"/>
<path d="M188.966 35.0673L183.953 81.3757L217.23 86.2877L225.562 40.4712L188.966 35.0673Z" fill="#8399E2"/>
<path d="M192.319 40.8383L188.428 76.7588L214.242 80.5696L220.704 45.0313L192.319 40.8383Z" fill="#4F2127"/>
<path d="M199.251 40.3614L195.823 80.3076L197.09 80.4176L200.519 40.4714L199.251 40.3614Z" fill="#8399E2"/>
<path d="M206.163 81.3265L204.914 81.0919L211.947 43.0521L211.954 42.9954L213.211 43.1808L213.2 43.264L206.163 81.3265Z" fill="#8399E2"/>
<path d="M189.786 52.2403L189.85 51.6878L189.218 51.5932L189.319 50.9006L219.676 54.4579L219.526 55.7256L189.786 52.2403Z" fill="#8399E2"/>
<path d="M188.394 66.2952L188.533 65.0275L217.095 68.1722L217.437 68.2214L217.253 69.4892L216.933 69.44L188.394 66.2952Z" fill="#8399E2"/>
<path d="M189.432 31.8922L226.025 37.2962C226.924 18.6055 192.518 14.8704 189.432 31.8922Z" fill="#8399E2"/>
<path d="M198.531 30.5903L217.686 33.4172C218.152 23.6386 200.146 21.6821 198.531 30.5903Z" fill="#576FBC"/>
<path d="M225.599 43.7748L187.991 38L187.765 39.5629L225.423 44.9858L225.599 43.7748Z" fill="#9E3A44"/>
<path d="M189.131 30.2119L188.721 31.6348L226.533 37.3718L226.864 36.1684L189.131 30.2119Z" fill="#9E3A44"/>
<path d="M187.615 31.2413L187.487 38.2574L226.36 44.3274L227.631 37.1486L187.615 31.2413Z" fill="#576FBC"/>
<path opacity="0.5" d="M202.527 29.4803C206.406 28.7734 209.297 26.7866 208.982 25.0426C208.668 23.2986 205.268 22.4579 201.389 23.1648C197.51 23.8718 194.619 25.8586 194.934 27.6026C195.248 29.3465 198.647 30.1872 202.527 29.4803Z" fill="white"/>
<path d="M156.426 65.8448C155.316 67.5818 160.562 142.424 162.082 143.302C163.606 144.176 298.065 144.834 299.589 143.302C301.113 141.769 300.459 61.9091 299.589 60.3765C298.72 58.8439 158.387 62.7833 156.426 65.8448Z" fill="#304787"/>
<path d="M162.564 69.5989C161.548 71.1542 166.346 138.254 167.738 139.037C169.13 139.82 292.127 140.411 293.52 139.037C294.912 137.663 294.317 66.0681 293.52 64.6944C292.725 63.3245 164.355 66.8552 162.564 69.5989Z" fill="#8399E2"/>
<path d="M264.506 65.5762L188.051 89.9168C196.458 129.886 208.3 144.218 208.3 144.218L286.483 114.39C286.479 114.394 266.903 82.4201 264.506 65.5762ZM195.54 93.4589C195.536 93.5459 195.525 93.6292 195.51 93.7162C195.491 93.7994 195.465 93.8827 195.427 93.9622C195.397 94.0454 195.352 94.1173 195.303 94.193C195.254 94.2649 195.197 94.3292 195.137 94.3898C195.077 94.4503 195.005 94.5071 194.934 94.5487C194.862 94.5979 194.787 94.6358 194.708 94.666C194.625 94.7001 194.543 94.7228 194.456 94.7379C194.373 94.7531 194.287 94.7607 194.2 94.7569C194.117 94.7569 194.031 94.7455 193.944 94.7266C193.858 94.7115 193.775 94.685 193.696 94.6471C193.617 94.6131 193.542 94.5714 193.47 94.5222C193.399 94.4693 193.331 94.4163 193.271 94.3519C193.214 94.2876 193.158 94.2233 193.113 94.1514C193.064 94.0795 193.03 94 192.996 93.9243C192.966 93.8411 192.939 93.7578 192.924 93.6708C192.909 93.5837 192.906 93.4967 192.906 93.4134C192.909 93.3226 192.917 93.2394 192.936 93.1561C192.955 93.0729 192.981 92.9896 193.015 92.9101C193.049 92.8307 193.094 92.755 193.143 92.6831C193.192 92.6112 193.248 92.5431 193.308 92.4825C193.372 92.4257 193.436 92.369 193.511 92.3236C193.583 92.2744 193.662 92.2403 193.737 92.2063C193.899 92.1419 194.072 92.1116 194.245 92.1116C194.332 92.1154 194.415 92.123 194.501 92.1419C194.584 92.1608 194.67 92.1873 194.75 92.2214C194.829 92.2555 194.904 92.3009 194.975 92.3501C195.047 92.3993 195.115 92.456 195.171 92.5166C195.231 92.5771 195.288 92.6452 195.333 92.7171C195.378 92.789 195.416 92.8685 195.453 92.948C195.483 93.0274 195.506 93.1107 195.521 93.1977C195.532 93.2848 195.54 93.3718 195.54 93.4589ZM199.758 92.9972C199.702 93.0199 199.642 93.035 199.581 93.0464C198.945 93.1637 198.302 92.7928 198.095 92.1571C197.869 91.4608 198.245 90.7152 198.934 90.4844C199.626 90.2573 200.368 90.632 200.597 91.3283C200.827 92.0246 200.451 92.7739 199.758 92.9972ZM204.884 91.3056C204.827 91.3245 204.767 91.3397 204.707 91.351C204.071 91.4683 203.427 91.0975 203.224 90.4617C202.994 89.7692 203.371 89.0199 204.067 88.7928C204.756 88.562 205.501 88.9404 205.726 89.6367C205.956 90.3292 205.58 91.0785 204.884 91.3056ZM210.013 89.614C209.956 89.6329 209.896 89.6481 209.836 89.6594C209.2 89.7767 208.556 89.4059 208.349 88.7701C208.124 88.0738 208.5 87.3283 209.189 87.0975C209.881 86.8704 210.626 87.2488 210.852 87.9414C211.078 88.6339 210.705 89.3832 210.013 89.614ZM215.142 87.9186C215.085 87.9414 215.025 87.9565 214.965 87.9678C214.329 88.0852 213.682 87.7143 213.475 87.0748C213.249 86.3822 213.621 85.6329 214.318 85.4059C215.006 85.175 215.751 85.5535 215.981 86.2498C216.207 86.9423 215.83 87.6916 215.142 87.9186ZM220.267 86.2233C220.211 86.2422 220.15 86.2573 220.09 86.2687C219.454 86.386 218.811 86.0152 218.608 85.3794C218.378 84.6869 218.754 83.9376 219.447 83.7067C220.135 83.4797 220.88 83.8581 221.106 84.5544C221.336 85.2469 220.959 85.9962 220.267 86.2233ZM225.396 84.5279C225.34 84.5506 225.28 84.5658 225.223 84.5771C224.587 84.6944 223.944 84.3236 223.733 83.6878C223.507 82.9915 223.883 82.246 224.572 82.0152C225.264 81.7881 226.006 82.1627 226.235 82.859C226.461 83.5516 226.089 84.3009 225.396 84.5279ZM230.525 82.8363C230.465 82.8553 230.405 82.8704 230.345 82.8818C229.709 82.9991 229.065 82.6282 228.862 81.9924C228.636 81.2999 229.009 80.5506 229.705 80.3236C230.394 80.0927 231.139 80.4712 231.364 81.1675C231.59 81.86 231.214 82.6093 230.525 82.8363ZM235.647 81.1448C235.59 81.1637 235.53 81.1788 235.47 81.1902C234.834 81.3075 234.191 80.9366 233.984 80.3009C233.758 79.6046 234.134 78.859 234.823 78.6282C235.515 78.4011 236.26 78.7796 236.486 79.4721C236.716 80.1646 236.343 80.9139 235.647 81.1448ZM240.776 79.4456C240.716 79.4683 240.656 79.4835 240.603 79.4948C239.963 79.6121 239.32 79.2413 239.113 78.6017C238.887 77.9092 239.259 77.1599 239.956 76.9328C240.644 76.702 241.389 77.0804 241.619 77.7767C241.845 78.4693 241.465 79.2223 240.776 79.4456ZM245.901 77.754C245.845 77.773 245.785 77.7881 245.724 77.7994C245.088 77.9168 244.445 77.5459 244.242 76.9101C244.012 76.2176 244.389 75.4683 245.081 75.2375C245.77 75.0104 246.515 75.3889 246.74 76.0852C246.97 76.7777 246.594 77.5232 245.901 77.754ZM251.03 76.0587C250.974 76.0814 250.914 76.0965 250.857 76.1079C250.221 76.2252 249.578 75.8543 249.367 75.2186C249.141 74.5222 249.518 73.7767 250.206 73.5459C250.899 73.3188 251.64 73.6935 251.87 74.3898C252.095 75.0823 251.723 75.8316 251.03 76.0587ZM256.159 74.3633C256.099 74.3822 256.039 74.3974 255.979 74.4087C255.343 74.526 254.699 74.1552 254.492 73.5194C254.267 72.8269 254.639 72.0776 255.335 71.8505C256.024 71.6197 256.769 71.9981 256.995 72.6944C257.224 73.387 256.848 74.14 256.159 74.3633ZM261.958 72.1646C261.763 72.456 261.454 72.6528 261.112 72.7171C260.766 72.7815 260.408 72.702 260.126 72.5014C259.84 72.3046 259.64 71.9943 259.576 71.65C259.516 71.3056 259.595 70.9461 259.791 70.6585C260.186 70.087 261.055 69.9281 261.624 70.3217C261.91 70.5222 262.109 70.8326 262.173 71.1769C262.233 71.5175 262.154 71.877 261.958 72.1646Z" fill="#F2D2B1"/>
<path d="M265.996 72.2858L185.816 73.8335C182.61 114.56 189.925 131.68 189.925 131.68L273.308 125.364C273.308 125.364 263.55 89.1259 265.996 72.2858ZM192.002 79.3662C191.976 79.4457 191.938 79.5251 191.901 79.6008C191.859 79.6765 191.811 79.7484 191.754 79.8127C191.701 79.8846 191.637 79.9414 191.57 79.9982C191.502 80.0511 191.43 80.0966 191.355 80.1382C191.28 80.1798 191.197 80.2139 191.114 80.2328C191.032 80.2593 190.949 80.2744 190.862 80.282C190.776 80.2896 190.689 80.2896 190.603 80.282C190.52 80.2744 190.433 80.2555 190.35 80.229C190.271 80.2063 190.189 80.1685 190.117 80.1268C190.038 80.089 189.967 80.0398 189.903 79.983C189.839 79.9263 189.775 79.8657 189.722 79.8014C189.669 79.7295 189.62 79.6614 189.579 79.5819C189.541 79.5062 189.508 79.4267 189.485 79.3435C189.459 79.2602 189.447 79.177 189.436 79.0899C189.428 79.0029 189.428 78.9159 189.436 78.8288C189.444 78.7418 189.466 78.6585 189.489 78.5753C189.515 78.492 189.549 78.4088 189.59 78.3369C189.632 78.2612 189.681 78.1893 189.733 78.1249C189.79 78.0606 189.854 77.9963 189.918 77.9433C189.985 77.8903 190.057 77.8411 190.132 77.7995C190.207 77.7616 190.286 77.7276 190.373 77.7049C190.456 77.6784 190.539 77.667 190.625 77.6557C190.798 77.6405 190.971 77.6595 191.137 77.7124C191.216 77.7389 191.299 77.773 191.37 77.8146C191.446 77.8562 191.521 77.9054 191.585 77.9584C191.649 78.0152 191.713 78.0795 191.765 78.1439C191.818 78.212 191.867 78.2839 191.905 78.3596C191.946 78.4352 191.98 78.5147 192.002 78.598C192.025 78.6812 192.04 78.7645 192.051 78.8553C192.059 78.9386 192.055 79.0256 192.048 79.1126C192.044 79.1959 192.025 79.2791 192.002 79.3662ZM196.176 80.1268C196.116 80.1306 196.055 80.1306 195.995 80.123C195.352 80.0549 194.84 79.5138 194.817 78.8477C194.798 78.1136 195.37 77.5081 196.097 77.4816C196.827 77.4627 197.429 78.0341 197.455 78.7683C197.474 79.4949 196.902 80.1041 196.176 80.1268ZM201.568 79.9641C201.508 79.9641 201.448 79.9641 201.388 79.9565C200.744 79.8884 200.232 79.3473 200.214 78.6812C200.191 77.9509 200.763 77.3416 201.493 77.3189C202.219 77.2962 202.825 77.8714 202.848 78.6018C202.87 79.3321 202.298 79.9452 201.568 79.9641ZM206.965 79.8014C206.904 79.8014 206.844 79.8014 206.784 79.7938C206.14 79.7257 205.629 79.1845 205.606 78.5185C205.587 77.7843 206.159 77.1789 206.885 77.1524C207.616 77.1334 208.221 77.7087 208.244 78.439C208.263 79.1656 207.695 79.7787 206.965 79.8014ZM212.361 79.6387C212.301 79.6424 212.24 79.6424 212.18 79.6349C211.537 79.5668 211.021 79.0256 211.002 78.3558C210.984 77.6254 211.552 77.0161 212.278 76.9934C213.004 76.9707 213.61 77.5459 213.636 78.2801C213.659 79.0067 213.087 79.6159 212.361 79.6387ZM217.753 79.4759C217.693 79.4759 217.633 79.4759 217.573 79.4684C216.929 79.4002 216.417 78.8591 216.399 78.1931C216.376 77.4627 216.948 76.8534 217.678 76.8269C218.404 76.808 219.01 77.3832 219.033 78.1136C219.055 78.844 218.483 79.4532 217.753 79.4759ZM223.15 79.3094C223.089 79.3132 223.029 79.3132 222.969 79.3056C222.325 79.2375 221.814 78.6964 221.791 78.0303C221.772 77.2962 222.344 76.6907 223.071 76.6642C223.801 76.6453 224.403 77.2167 224.429 77.9509C224.448 78.6774 223.876 79.2905 223.15 79.3094ZM228.546 79.1505C228.482 79.1505 228.422 79.1467 228.361 79.1429C227.718 79.0748 227.206 78.5336 227.187 77.8676C227.169 77.1372 227.737 76.528 228.463 76.5053C229.189 76.4826 229.795 77.0578 229.818 77.7843C229.844 78.5185 229.268 79.1278 228.546 79.1505ZM233.935 78.9878C233.874 78.9878 233.814 78.9878 233.754 78.9802C233.111 78.9121 232.599 78.3709 232.576 77.7049C232.557 76.9707 233.129 76.3652 233.856 76.3387C234.586 76.3198 235.192 76.895 235.214 77.6254C235.233 78.352 234.665 78.9651 233.935 78.9878ZM239.331 78.8212C239.267 78.825 239.207 78.8212 239.15 78.8175C238.503 78.7456 237.991 78.2082 237.972 77.5384C237.954 76.808 238.522 76.1987 239.248 76.176C239.974 76.1533 240.58 76.7285 240.607 77.4627C240.629 78.1893 240.057 78.8023 239.331 78.8212ZM244.723 78.6623C244.663 78.6623 244.603 78.6623 244.543 78.6547C243.899 78.5866 243.388 78.0455 243.369 77.3794C243.346 76.6491 243.918 76.0398 244.648 76.0133C245.374 75.9944 245.98 76.5696 246.003 77.2962C246.025 78.0303 245.453 78.6358 244.723 78.6623ZM250.12 78.4958C250.06 78.4996 249.999 78.4996 249.939 78.492C249.296 78.4239 248.784 77.8827 248.761 77.2167C248.742 76.4825 249.314 75.8771 250.041 75.8506C250.771 75.8317 251.373 76.4031 251.399 77.1372C251.418 77.8638 250.85 78.4769 250.12 78.4958ZM255.516 78.3331C255.452 78.3331 255.392 78.3293 255.332 78.3255C254.688 78.2574 254.176 77.7162 254.158 77.0502C254.139 76.3198 254.707 75.7106 255.437 75.6879C256.163 75.6651 256.769 76.2404 256.792 76.9707C256.814 77.7011 256.242 78.3141 255.516 78.3331ZM261.695 77.879C261.424 78.1022 261.074 78.2044 260.728 78.1666C260.378 78.1287 260.058 77.9546 259.84 77.6784C259.622 77.4059 259.516 77.054 259.554 76.7058C259.591 76.3577 259.768 76.036 260.039 75.8127C260.577 75.3775 261.458 75.4721 261.891 76.0133C262.109 76.2896 262.214 76.6415 262.177 76.9896C262.143 77.3378 261.966 77.6595 261.695 77.879Z" fill="white"/>
<path d="M188.86 82.9007L262.192 81.5762" stroke="#F4848F" stroke-width="0.5" stroke-miterlimit="10" stroke-linecap="round" stroke-linejoin="round"/>
<path d="M259.558 81.6254C259.896 106.757 266.685 122.859 266.685 122.859" stroke="#9CB1F4" stroke-width="0.5" stroke-miterlimit="10" stroke-linecap="round" stroke-linejoin="round"/>
<path d="M190.08 82.9006C188.864 109.205 194.821 127.885 194.821 127.885" stroke="#9CB1F4" stroke-width="0.5" stroke-miterlimit="10" stroke-linecap="round" stroke-linejoin="round"/>
<path d="M114.994 107.162C114.994 107.162 144.268 93.6557 145.445 94.0304C146.623 94.4012 163.132 117.985 163.17 118.462C163.207 118.939 129.354 133.641 129.354 133.641L114.994 107.162Z" fill="#576FBC"/>
<path d="M158.786 111.881L128.357 126.367C128.357 126.367 128.075 130.624 129.584 132.664C129.584 132.664 160.998 118.59 161.085 118.121C161.171 117.656 160.076 113.376 158.786 111.881Z" fill="white"/>
<path d="M161.932 112.146C161.969 112.619 128.116 127.325 128.116 127.325L123.277 118.401L120.876 113.97L118.908 110.344L117.93 108.543L113.76 100.85C113.76 100.85 119.22 98.3293 125.516 95.4949C126.852 94.9007 128.229 94.2839 129.603 93.667C129.99 93.4967 130.367 93.3265 130.754 93.1562C133.182 92.0776 135.548 91.0483 137.607 90.1741C141.219 88.6415 143.872 87.6046 144.211 87.7106C145.389 88.0852 161.898 111.665 161.932 112.146Z" fill="#8399E2"/>
<path d="M113.76 100.846C112.77 101.694 114.994 107.162 114.994 107.162L129.351 133.641C129.351 133.641 127.574 129.198 128.116 127.325L113.76 100.846Z" fill="#9CB1F4"/>
<path d="M119.371 101.724C119.179 102.257 125.516 112.312 126.468 112.706C127.424 113.099 147.478 103.154 147.523 102.518C147.568 101.883 141.569 92.2063 141.122 92.0663C140.674 91.9225 119.619 101.027 119.371 101.724Z" fill="#9CB1F4"/>
<path d="M115.939 101.069L129.042 124.361" stroke="#304787" stroke-width="0.5" stroke-miterlimit="10" stroke-linecap="round" stroke-linejoin="round"/>
<g opacity="0.5">
<path d="M125.516 95.491C122.987 99.8392 120.458 104.195 117.93 108.539L118.908 110.341C122.472 104.778 126.039 99.2223 129.603 93.667C128.229 94.28 126.856 94.8969 125.516 95.491Z" fill="white"/>
<path d="M130.754 93.1561C127.315 100.021 124.022 106.957 120.876 113.966L123.277 118.397C128.444 109.202 133.223 99.7786 137.607 90.1703C135.548 91.0482 133.181 92.0814 130.754 93.1561Z" fill="white"/>
</g>
<path d="M142.258 101.807C137.833 105.198 137.362 130.799 137.362 130.799L145.634 129.777C145.634 129.777 146.559 105.247 150.529 100.089C150.529 100.089 145.953 98.9765 142.258 101.807Z" fill="#FFA733"/>
<path d="M186.587 140.028L175.362 175.332C177.214 175.332 186.347 173.921 187.957 172.301C189.568 170.681 194.046 139.729 194.046 139.729L186.587 140.028Z" fill="#9E3A44"/>
<path d="M139.244 127.362C139.244 127.362 127.424 156.452 129.392 160.804C130.461 163.162 173.45 175.813 175.362 175.332C177.274 174.852 186.587 140.028 186.587 140.028L139.244 127.362Z" fill="#D35B61"/>
<path d="M194.05 139.729C194.05 139.729 187.916 140.449 187.156 140.6C186.395 140.751 181.993 158.791 180.916 160.127C179.84 161.463 132.798 147.056 132.32 145.073C131.842 143.09 137.396 127.484 138.589 126.22C139.782 124.959 148.501 124.6 149.694 124.778C150.887 124.959 193.214 138.647 194.05 139.729Z" fill="#F4848F"/>
<path opacity="0.5" d="M158.934 136.695C159.393 135.01 155.429 132.45 150.081 130.977C144.733 129.503 140.026 129.675 139.567 131.361C139.107 133.046 143.071 135.606 148.419 137.079C153.767 138.553 158.475 138.381 158.934 136.695Z" fill="white"/>
<path d="M157.679 153.516L157.036 153.236C157.465 152.237 157.913 151.026 157.98 150.594C157.201 150.31 153.182 149.205 152.279 149.005C152.087 149.357 151.741 150.42 151.497 151.328L150.819 151.143C151.613 148.229 151.933 148.252 152.193 148.274C152.238 148.278 158.093 149.762 158.511 150.079C158.714 150.231 158.996 150.447 157.679 153.516Z" fill="#FFA733"/>
<path d="M150.477 150.155C150.477 150.155 148.964 154.034 149.291 154.541C149.619 155.048 156.174 157.198 156.769 156.838C157.363 156.479 158.319 152.906 158.319 152.906L150.477 150.155Z" fill="#FFCE33"/>
<path d="M139.692 126.821L182.933 140.059" stroke="#9E3A44" stroke-width="0.5" stroke-miterlimit="10" stroke-linecap="round" stroke-linejoin="round"/>
<path d="M186.057 145.853L192.8 145.016C192.8 145.016 197.745 131.336 194.464 122.42C192.857 118.053 188.638 114.961 188.638 114.961C188.638 114.961 191.31 125.917 186.057 145.853Z" fill="#FFA733"/>
<path d="M193.357 118.564C185.157 107.756 152.053 90.6585 142.258 101.807C155.564 97.44 192.793 123.033 195.502 131.665C195.799 128.922 196.033 122.095 193.357 118.564Z" fill="#4F2127"/>
<path d="M179.588 106.772C178.963 106.844 174.877 113.239 175.091 113.516C175.306 113.796 179.381 117.349 180.111 117.262C180.841 117.175 184.668 110.976 184.638 110.386C184.608 109.799 180.326 106.685 179.588 106.772Z" stroke="white" stroke-width="2" stroke-miterlimit="10"/>
<path d="M182.704 113.728C181.921 113.122 181.086 112.585 180.205 112.131" stroke="white" stroke-width="2" stroke-miterlimit="10" stroke-linecap="round"/>
<path d="M313.874 70.931C313.874 70.931 341.096 88.2366 341.427 89.4324C341.759 90.6283 331.109 117.406 330.733 117.694C330.356 117.985 299.638 97.4703 299.638 97.4703L313.874 70.931Z" fill="#9E3A44"/>
<path d="M333.822 110.416L305.151 92.6718C305.151 92.6718 301.448 94.7569 300.572 97.1372C300.572 97.1372 329.434 115.941 329.871 115.756C330.311 115.574 333.284 112.32 333.822 110.416Z" fill="white"/>
<path d="M335.32 113.213C334.944 113.501 304.225 92.9859 304.225 92.9859L309.023 84.0436L311.409 79.6009L313.359 75.9642L314.326 74.1553L318.465 66.4467C318.465 66.4467 323.545 69.6747 329.34 73.4362C330.567 74.2385 331.832 75.0635 333.092 75.8847C333.442 76.1193 333.792 76.3426 334.146 76.5772C336.366 78.0342 338.519 79.4684 340.37 80.7248C343.618 82.931 345.932 84.6037 346.026 84.9443C346.35 86.1439 335.704 112.922 335.32 113.213Z" fill="#D35B61"/>
<path d="M318.465 66.4466C317.219 66.0757 313.874 70.931 313.874 70.931L299.635 97.4703C299.635 97.4703 302.37 93.5497 304.225 92.9859L318.465 66.4466Z" fill="#F4848F"/>
<path d="M320.794 71.6538C320.245 71.7862 315.319 82.6055 315.511 83.6273C315.703 84.6491 334.932 96.1268 335.486 95.8203C336.039 95.51 340.833 85.1789 340.705 84.7247C340.581 84.2631 321.509 71.4835 320.794 71.6538Z" fill="#F4848F"/>
<path d="M319.466 68.4031L307.198 92.1533" stroke="#4F2127" stroke-width="0.5" stroke-miterlimit="10" stroke-linecap="round" stroke-linejoin="round"/>
<g opacity="0.5">
<path d="M329.337 73.4362C324.332 73.6746 319.323 73.9205 314.326 74.1552L313.359 75.9641C319.94 75.9338 326.518 75.9111 333.088 75.8846C331.828 75.0634 330.563 74.2384 329.337 73.4362Z" fill="white"/>
<path d="M334.142 76.5771C326.544 77.421 318.966 78.4277 311.409 79.6008L309.023 84.0436C319.507 83.3813 329.969 82.2725 340.363 80.7247C338.511 79.4684 336.362 78.0341 334.142 76.5771Z" fill="white"/>
</g>
<path d="M289.647 156.38L289.956 154.78C300.587 156.853 310.747 153.168 316.471 145.164C318.269 142.651 319.586 139.782 320.384 136.642C323.041 126.151 319.139 115.264 310.668 109.55C308.184 107.873 305.396 106.708 302.374 106.098C301.155 105.852 299.917 105.686 298.698 105.603L298.803 103.975C300.094 104.063 301.403 104.237 302.694 104.498C305.926 105.152 308.911 106.397 311.571 108.195C320.606 114.291 324.78 125.883 321.953 137.043C321.107 140.384 319.703 143.438 317.784 146.117C311.692 154.643 300.906 158.575 289.647 156.38Z" fill="#304787"/>
<path d="M268.551 159.646C268.551 159.646 272.156 155.09 273.425 155.022C274.697 154.957 302.133 161.591 302.86 162.56C303.582 163.529 303.552 168.607 303.552 168.607C295.966 169.084 275.344 164.782 268.551 159.646Z" fill="#192644"/>
<path d="M290.302 152.063L288.74 151.661L286.178 158.742L289.99 159.718L290.302 152.063Z" fill="#192644"/>
<path d="M298.464 103.075L298.013 108.683L300.199 109.05C300.199 109.05 301.953 103.366 301.87 103.347C299.808 102.386 298.464 103.075 298.464 103.075Z" fill="#192644"/>
<path d="M318.484 136.153C317.739 139.101 316.505 141.735 314.879 144.006C309.674 151.287 300.462 154.825 290.486 152.88C280.717 150.976 274.132 142.397 273.233 132.816C272.981 130.155 273.172 127.415 273.857 124.725C276.714 113.451 287.22 106.761 298.476 107.544C299.593 107.62 300.726 107.771 301.851 107.998C304.715 108.581 307.285 109.682 309.513 111.188C317.287 116.43 320.926 126.522 318.484 136.153Z" fill="#576FBC"/>
<path d="M302.581 125.523C301.102 125.936 299.3 125.039 298.08 125.989C297.279 126.613 297.14 127.786 297.32 128.789C297.497 129.792 297.926 130.746 298.009 131.76C298.092 132.774 297.704 133.947 296.763 134.318C295.717 134.73 294.611 133.996 293.595 133.512C292.579 133.027 291.021 132.986 290.678 134.064C290.46 134.738 290.889 135.434 291.299 136.013C292.093 137.137 292.887 138.257 293.681 139.381C294.389 140.38 295.123 141.459 295.172 142.685C295.22 143.911 294.238 145.258 293.03 145.099C291.442 144.887 290.942 142.553 289.403 142.117C287.894 141.686 286.61 143.317 285.09 143.711C283.156 144.21 281.293 142.59 280.334 140.831C279.242 138.829 278.896 136.081 280.462 134.424C282.095 132.687 284.985 132.922 286.885 131.495C288.293 130.439 288.947 128.471 288.462 126.776C288.014 125.205 286.753 124.028 285.854 122.67C285.312 121.856 284.838 120.887 285.154 119.938C285.406 119.169 285.636 118.133 284.857 117.546C284.198 117.046 283.002 117.152 282.324 117.535C281.293 118.117 280.778 119.487 281.169 120.607C281.463 121.455 282.17 122.083 282.625 122.848C283.081 123.616 283.212 124.759 282.494 125.285C281.929 125.701 281.131 125.527 280.48 125.773C279.716 126.061 279.272 126.863 279.062 127.65C278.847 128.437 278.802 129.27 278.505 130.03C277.839 131.756 275.953 132.793 274.113 132.853C273.82 132.861 273.526 132.85 273.233 132.819C272.981 130.159 273.172 127.419 273.857 124.729C276.714 113.455 287.22 106.764 298.476 107.548C298.265 108.925 296.948 110.11 294.923 110.227C294.306 110.265 293.67 110.242 293.083 110.447C292.496 110.651 291.958 111.154 291.935 111.775C291.909 112.736 293.004 113.273 293.911 113.588C294.818 113.902 295.902 114.507 295.785 115.461C295.683 116.331 294.618 116.797 294.408 117.644C294.171 118.609 295.209 119.476 296.191 119.544C297.177 119.62 298.126 119.196 299.096 118.999C300.948 118.624 303.1 119.241 304.101 120.857C305.102 122.466 304.406 125.02 302.581 125.523Z" fill="#304787"/>
<path d="M318.484 136.153C317.739 139.101 316.505 141.735 314.879 144.006C313.908 144.233 312.866 144.237 311.981 143.798C310.999 143.306 310.295 142.155 310.566 141.092C310.841 140.021 311.996 139.128 311.699 138.064C311.537 137.482 310.943 136.993 311.074 136.399C311.187 135.907 311.74 135.68 312.102 135.321C313.046 134.363 312.294 132.573 311.048 132.07C309.806 131.567 308.395 131.957 307.134 132.414C305.874 132.869 304.553 133.402 303.232 133.171C302.427 133.028 301.599 132.486 301.49 131.673C301.358 130.734 302.186 129.962 302.954 129.414C304.696 128.18 306.574 127.147 308.546 126.329C308.997 126.144 309.468 125.958 309.821 125.622C310.179 125.285 310.393 124.744 310.209 124.29C309.912 123.563 308.892 123.514 308.312 122.984C307.424 122.178 308.011 120.554 309.084 120.025C310.16 119.499 311.436 119.722 312.606 119.957C313.355 119.362 313.298 118.14 312.775 117.338C312.252 116.536 311.402 116.025 310.627 115.457C308.918 114.212 308.768 112.494 309.509 111.177C317.287 116.43 320.926 126.522 318.484 136.153Z" fill="#304787"/>
<path opacity="0.5" d="M292.285 122.1C298.222 119.228 301.974 114.681 300.665 111.944C299.356 109.207 293.482 109.317 287.544 112.189C281.607 115.061 277.855 119.608 279.164 122.345C280.473 125.081 286.348 124.972 292.285 122.1Z" fill="white"/>
<path d="M321.464 73.614C317.227 78.0757 311.616 80.4106 305.938 80.596C305.704 80.6036 305.471 80.6074 305.242 80.6074C299.902 80.6187 294.554 78.7266 290.283 74.9082C290.099 74.7455 289.918 74.579 289.738 74.4087L289.674 74.3481C286.49 71.2904 284.394 67.5175 283.397 63.5175C283.337 63.2753 283.28 63.0369 283.227 62.7947C281.711 55.7408 283.574 48.0776 288.876 42.4465L288.944 42.3784C289.087 42.2271 289.233 42.0795 289.38 41.9319C295.1 36.2289 303.149 34.2308 310.499 36.017C310.77 36.0814 311.041 36.1533 311.308 36.2289C314.533 37.141 317.596 38.7909 320.241 41.1826C320.407 41.334 320.569 41.4853 320.734 41.6405L320.779 41.6859C324.795 45.5648 327.071 50.5903 327.579 55.7635C327.602 56.0019 327.624 56.2403 327.64 56.4787C328.02 62.1816 326.258 68.0132 322.33 72.649C322.176 72.8344 322.014 73.0161 321.852 73.1977C321.724 73.3377 321.596 73.474 321.464 73.614Z" fill="#FFA733"/>
<path d="M305.938 80.596C305.704 80.6035 305.471 80.6073 305.242 80.6073C305.418 78.5941 305.501 76.5733 305.37 74.5487C305.185 71.7407 304.564 68.9063 303.225 66.4162C302.137 64.3954 300.549 62.6168 298.585 61.4361C295.371 65.6291 292.586 70.1475 290.283 74.9082C290.099 74.7454 289.918 74.5789 289.738 74.4086C290.878 72.0624 292.138 69.7767 293.508 67.5591C294.882 65.3339 296.372 63.1731 297.96 61.0955C297.715 60.9706 297.471 60.8495 297.215 60.7436C294.686 59.6726 291.868 59.8353 289.29 60.6376C287.19 61.2923 285.26 62.3519 283.393 63.5174C283.333 63.2752 283.276 63.0368 283.224 62.7946C285.414 61.4399 287.706 60.2365 290.223 59.6499C292.985 59.0066 295.864 59.1806 298.4 60.5241C299.224 59.4682 300.071 58.4276 300.944 57.4134C300.662 57.1296 300.383 56.8457 300.101 56.5581C295.913 52.2365 292.142 47.5061 288.868 42.4465L288.936 42.3784C289.079 42.227 289.226 42.0794 289.373 41.9318C291.01 44.4749 292.774 46.9347 294.656 49.3036C296.763 51.9526 299.017 54.4805 301.403 56.8798C302.762 55.332 304.18 53.8372 305.652 52.3992C305.84 52.2175 306.028 52.0359 306.22 51.858C305.964 51.4872 305.735 51.0936 305.543 50.6735C305.181 49.8788 304.956 49.0501 304.846 48.2024C304.572 46.0567 305.038 43.8164 305.953 41.8713C306.645 40.403 307.586 39.0898 308.655 37.8864C309.23 37.2355 309.848 36.6187 310.484 36.017C310.754 36.0813 311.025 36.1532 311.293 36.2289C310.664 36.8079 310.051 37.4058 309.471 38.034C308.113 39.5099 306.939 41.1409 306.216 43.0293C305.584 44.6868 305.302 46.5487 305.573 48.3084C305.738 49.3869 306.111 50.4313 306.736 51.3623C307.842 50.3254 308.975 49.3188 310.137 48.3462C312.301 46.5335 314.563 44.8419 316.911 43.279C317.998 42.5524 319.105 41.8561 320.226 41.1825C320.392 41.3339 320.554 41.4853 320.719 41.6404L320.764 41.6858C319.455 42.4616 318.168 43.2715 316.907 44.1267C315.428 45.1258 313.979 46.174 312.572 47.2752C312.218 47.5515 311.872 47.8278 311.522 48.1078C310.024 49.3225 308.568 50.5979 307.161 51.9224C308.166 53.1447 309.539 54.0226 310.954 54.6887C312.369 55.3547 313.87 55.8467 315.391 56.1873C318.292 56.8419 321.306 56.9403 324.245 56.5014C325.37 56.3348 326.48 56.0851 327.568 55.7596C327.591 55.998 327.613 56.2365 327.628 56.4749C326.146 56.9063 324.625 57.2052 323.086 57.3528C320 57.6594 316.847 57.3907 313.87 56.5241C311.263 55.7672 308.436 54.5524 306.653 52.4105C305.001 53.9924 303.416 55.6461 301.904 57.368C304.203 59.6461 306.619 61.8032 309.14 63.8315C313.268 67.1428 317.682 70.0983 322.315 72.6414C322.16 72.8268 321.999 73.0085 321.837 73.1901C319.876 72.1116 317.957 70.9536 316.079 69.7275C310.818 66.2951 305.908 62.3254 301.441 57.9015C300.605 58.8703 299.793 59.858 299.01 60.8646C301.294 62.2611 303.082 64.4105 304.214 66.8363C306.25 71.1655 306.333 75.9148 305.938 80.596Z" fill="#9E3A44"/>
<path opacity="0.5" d="M316.939 43.9302C317.193 40.9817 312.882 38.1985 307.31 37.7137C301.738 37.2288 297.015 39.2261 296.761 42.1746C296.508 45.1231 300.819 47.9063 306.391 48.3911C311.963 48.8759 316.686 46.8787 316.939 43.9302Z" fill="white"/>
<path d="M215.326 177.996C215.556 178.023 217.701 175.673 217.701 175.427C217.701 175.181 215.868 171.93 215.868 171.93L212.515 174.394C212.511 174.397 215.097 177.974 215.326 177.996Z" fill="#FFA733"/>
<path d="M204.733 175.022L209.873 172.948L212.368 175.082L216.5 171.93L215.307 169.277L218.137 165.83L216.941 163.601L202.825 173.141L204.733 175.022Z" fill="#9E3A44"/>
<path d="M203.589 145.512C203.589 145.512 201.696 142.939 200.695 143.094C199.694 143.249 190.746 148.513 190.659 149.096C190.572 149.678 191.833 153.024 191.833 153.024L203.589 145.512Z" fill="#FFA733"/>
<path d="M218.299 162.696C215.691 166.855 202.016 173.701 202.016 173.701L190.783 152.717C195.525 147.665 203.74 144.8 203.74 144.8L218.299 162.696Z" fill="#576FBC"/>
<path d="M212.598 162.522C212.523 160.747 202.246 148.49 201.215 148.403C200.183 148.316 195.382 151.43 195.22 152.456C195.058 153.478 202.784 167.173 203.901 168.074C205.023 168.967 212.654 163.938 212.598 162.522Z" fill="#8399E2"/>
<path opacity="0.5" d="M207.273 160.778C204.654 157.841 203.412 154.666 204.5 153.69C205.587 152.71 208.59 154.295 211.206 157.232C213.825 160.168 215.066 163.343 213.979 164.32C212.891 165.3 209.888 163.714 207.273 160.778Z" fill="white"/>
<path d="M259.497 124.778C259.509 124.887 259.52 124.997 259.531 125.103C259.543 125.209 259.55 125.323 259.561 125.429C259.663 126.465 259.765 127.525 259.855 128.551C259.866 128.66 259.874 128.77 259.885 128.88C259.896 128.99 259.904 129.099 259.915 129.209C260.062 130.889 260.182 132.46 260.261 133.697C260.284 134.057 260.303 134.394 260.318 134.693C260.333 135.082 260.344 135.415 260.348 135.676C260.348 136.051 260.333 136.282 260.291 136.324C260.246 136.369 259.829 136.46 259.125 136.581C258.707 136.653 258.188 136.736 257.586 136.831C257.115 136.906 256.588 136.982 256.024 137.065C253.8 137.391 250.921 137.788 247.903 138.193L247.58 138.238C247.47 138.254 247.365 138.265 247.256 138.28C246.229 138.416 245.19 138.553 244.163 138.693C244.054 138.708 243.948 138.723 243.839 138.734C243.73 138.749 243.625 138.764 243.515 138.776C240.298 139.2 237.205 139.597 234.845 139.9C234.255 139.975 233.713 140.044 233.223 140.104H233.22C232.572 140.187 232.027 140.259 231.598 140.312C230.917 140.399 230.533 140.445 230.533 140.445L228.395 121.773C228.395 121.773 229.11 121.656 230.318 121.459C230.762 121.387 231.27 121.304 231.839 121.209C232.309 121.133 232.821 121.05 233.366 120.963C235.383 120.638 237.848 120.237 240.441 119.824C240.735 119.775 241.032 119.729 241.329 119.68C241.438 119.661 241.544 119.646 241.653 119.627C241.762 119.612 241.867 119.593 241.976 119.574C242.97 119.415 243.971 119.256 244.968 119.097C244.998 119.09 245.032 119.09 245.062 119.082C245.171 119.067 245.277 119.048 245.386 119.033C245.495 119.018 245.6 118.999 245.709 118.984C245.728 118.98 245.751 118.976 245.77 118.976C248.874 118.481 251.847 118.019 254.142 117.671C254.21 117.659 254.282 117.652 254.349 117.637C254.884 117.557 255.381 117.485 255.828 117.421H255.832C256.498 117.323 257.059 117.243 257.495 117.19C258.135 117.103 258.511 117.065 258.545 117.088C258.587 117.111 258.647 117.413 258.726 117.924C258.767 118.204 258.816 118.545 258.869 118.939C258.91 119.249 258.952 119.593 258.997 119.968C259.136 121.304 259.317 122.992 259.497 124.778Z" fill="#304787"/>
<path d="M258.85 118.935L250.511 125.818L250.048 126.204L249.582 126.59L247.997 127.9L247.248 128.517L246.503 129.133L245.292 130.132L244.543 130.749L243.794 131.366L243.35 131.733L243.049 131.979L242.748 132.229L233.205 140.108H233.201C232.554 140.191 232.008 140.263 231.579 140.316C230.898 140.403 230.514 140.448 230.514 140.448L230.266 138.295L238.315 131.714L238.789 131.328L239.259 130.942L240.58 129.864L242.086 128.634L243.32 127.623L244.069 127.01L244.818 126.397L245.785 125.61L246.086 125.364L246.387 125.118L255.802 117.421H255.806C256.472 117.323 257.033 117.243 257.469 117.19C258.109 117.103 258.485 117.065 258.519 117.088C258.56 117.111 258.621 117.413 258.7 117.924C258.749 118.197 258.797 118.541 258.85 118.935Z" fill="#D35B61"/>
<path d="M244.415 129.716L243.666 130.333L243.233 130.689L243.282 131.116L243.798 131.359L244.547 130.742L245.295 130.125L244.415 129.716ZM244.825 126.394L244.076 127.007L243.327 127.62L244.2 128.032L244.949 127.419L245.698 126.806L244.825 126.394ZM258.85 118.935C258.797 118.541 258.752 118.201 258.707 117.921L248.916 126.004L248.453 126.39L247.986 126.776L247.128 127.487L246.383 128.104L245.638 128.721L244.422 129.724L243.674 130.341L243.241 130.696L242.94 130.946L242.925 130.957L242.605 131.222L231.586 140.316C232.015 140.263 232.565 140.191 233.208 140.108H233.212C233.701 140.047 234.243 139.979 234.834 139.904L242.876 133.266L243.177 133.016L243.478 132.77L244.678 131.775L245.427 131.158L246.176 130.541L246.349 130.401L246.733 130.083L247.384 129.546L248.129 128.929L248.874 128.312L251.181 126.405L251.644 126.019L252.11 125.633L258.978 119.964C258.929 119.589 258.888 119.245 258.85 118.935ZM243.67 130.333L243.237 130.689L243.286 131.116L243.801 131.359L244.55 130.742L243.67 130.333ZM243.67 130.333L243.237 130.689L243.286 131.116L243.801 131.359L244.55 130.742L243.67 130.333ZM255.813 117.417C255.305 117.493 254.741 117.576 254.124 117.667L246.274 124.081L245.973 124.327L245.672 124.573L243.948 125.981L243.196 126.594L242.801 126.92L242.447 127.207L242.153 127.446L241.205 128.218L240.452 128.834L239.7 129.448L237.649 131.124L237.178 131.51L236.708 131.896L230.153 137.255L230.39 139.317L239.929 131.521L240.87 130.749L241.461 130.265L242.966 129.035L244.197 128.028L244.945 127.415L245.694 126.802L245.905 126.632L246.206 126.386L246.507 126.14L257.473 117.179C257.04 117.239 256.479 117.323 255.813 117.417ZM243.67 130.333L243.237 130.689L243.286 131.116L243.801 131.359L244.55 130.742L245.299 130.125L244.422 129.716L243.67 130.333ZM243.67 130.333L243.237 130.689L243.286 131.116L243.801 131.359L244.55 130.742L243.67 130.333Z" fill="white"/>
<path d="M260.31 134.693C260.325 135.082 260.337 135.415 260.34 135.676C260.34 136.051 260.325 136.282 260.284 136.324C260.239 136.369 259.821 136.46 259.117 136.581C258.7 136.653 258.18 136.736 257.578 136.831L247.181 131.975L246.485 131.65L245.42 131.154L244.543 130.746L243.666 130.337L242.217 129.659L241.34 129.251L240.46 128.842L238.413 127.885L237.276 127.355L228.553 123.283L228.38 121.781C228.38 121.781 229.095 121.663 230.303 121.466C230.747 121.395 231.255 121.311 231.824 121.217L242.04 126.053L242.387 126.22L242.733 126.382L243.192 126.602L244.069 127.018L244.942 127.434L246.368 128.108L247.241 128.52L248.114 128.933L249.796 129.728L250.357 129.992L250.918 130.257L260.31 134.693Z" fill="#D35B61"/>
<path d="M245.292 130.125L244.415 129.716L243.666 130.333L244.543 130.742L245.42 131.15L246.168 130.534L245.292 130.125ZM245.292 130.125L244.415 129.716L243.666 130.333L244.543 130.742L245.42 131.15L246.168 130.534L245.292 130.125ZM252.569 130.061L251.448 129.531L248.867 128.308L247.994 127.896L247.121 127.483L246.086 126.992L245.943 126.923L245.698 126.81L244.825 126.394L243.952 125.977L242.624 125.349L241.927 125.02L233.355 120.959C232.813 121.046 232.301 121.13 231.827 121.205C231.259 121.296 230.747 121.379 230.307 121.455L241.675 126.836L242.24 127.101L242.451 127.203L242.801 127.366L243.327 127.616L244.2 128.028L245.63 128.706L246.503 129.118L247.376 129.531L248.159 129.902L249.281 130.431L260.337 135.665C260.337 135.404 260.325 135.075 260.306 134.681C260.291 134.382 260.273 134.049 260.25 133.686L252.569 130.061ZM245.292 130.125L244.415 129.716L243.666 130.333L244.543 130.742L245.42 131.15L246.168 130.534L245.292 130.125ZM245.292 130.125L244.415 129.716L243.666 130.333L244.543 130.742L245.42 131.15L246.168 130.534L245.292 130.125ZM247.064 130.95L246.718 130.787L246.372 130.628L246.172 130.534L245.295 130.125L244.419 129.716L242.974 129.043L242.097 128.634L241.216 128.221L240.08 127.688L239.512 127.423L238.943 127.158L228.448 122.257L228.681 124.297L235.628 127.54L236.196 127.805L236.764 128.07L239.715 129.448L240.595 129.856L241.472 130.265L242.18 130.598L242.748 130.863L242.925 130.946L242.94 130.954L243.286 131.116L243.801 131.359L244.678 131.767L246.605 132.668L246.951 132.827L247.297 132.99L256.013 137.058C256.581 136.978 257.104 136.899 257.574 136.823C258.177 136.732 258.696 136.649 259.114 136.573L247.064 130.95Z" fill="white"/>
<path d="M259.527 125.103C259.539 125.213 259.546 125.323 259.558 125.429C259.659 126.465 259.761 127.525 259.851 128.551C259.862 128.66 259.87 128.77 259.881 128.88L246.673 130.409L247.568 138.231C247.459 138.246 247.354 138.257 247.245 138.272C246.217 138.409 245.179 138.545 244.151 138.685C244.042 138.7 243.937 138.715 243.828 138.727L242.925 130.844L229.6 132.388L229.167 128.619L242.492 127.075L241.638 119.623C241.747 119.608 241.852 119.589 241.961 119.57C242.985 119.408 244.02 119.241 245.043 119.078C245.152 119.063 245.258 119.044 245.367 119.029L246.236 126.64L259.527 125.103Z" fill="#D35B61"/>
<path d="M246.311 130.125L247.245 138.276C247.354 138.261 247.459 138.25 247.568 138.235L247.892 138.189L247.034 130.7L259.911 129.209C259.9 129.099 259.892 128.99 259.881 128.88C259.87 128.77 259.862 128.66 259.851 128.551L246.311 130.125ZM229.562 132.062L229.637 132.717L242.639 131.211L243.504 138.772C243.613 138.761 243.719 138.745 243.828 138.73C243.937 138.719 244.042 138.704 244.151 138.689L243.211 130.484L229.562 132.062ZM241.641 119.627C241.532 119.642 241.427 119.661 241.318 119.68L242.131 126.787L229.129 128.293L229.204 128.948L242.853 127.37L241.961 119.578C241.856 119.593 241.747 119.608 241.641 119.627ZM246.53 126.28L245.694 118.984C245.585 118.999 245.48 119.018 245.371 119.033C245.262 119.048 245.156 119.067 245.047 119.082L245.954 127.007L259.561 125.432C259.55 125.323 259.542 125.213 259.531 125.107C259.52 125.001 259.509 124.887 259.497 124.781L246.53 126.28Z" fill="white"/>
<g opacity="0.5">
<path d="M241.961 119.574C241.852 119.593 241.747 119.612 241.638 119.627C241.529 119.642 241.423 119.661 241.314 119.68C241.017 119.729 240.719 119.775 240.426 119.824C236.821 123.601 233.159 127.324 229.438 130.98L229.611 132.49C234.578 127.866 240.151 123.877 244.953 119.101C243.96 119.256 242.959 119.415 241.961 119.574Z" fill="white"/>
<path d="M254.124 117.667C251.832 118.015 248.859 118.477 245.751 118.973C240.49 124.225 235.191 129.44 229.852 134.613L230.352 138.973C238.646 132.21 246.646 125.092 254.331 117.633C254.263 117.648 254.195 117.659 254.124 117.667Z" fill="white"/>
</g>
<path d="M232.106 154.273C231.985 154.288 231.88 154.201 231.865 154.08L228.083 121.05C228.068 120.929 228.155 120.823 228.275 120.808C228.395 120.793 228.501 120.88 228.516 121.001L232.298 154.03C232.309 154.151 232.222 154.261 232.106 154.273Z" fill="#192644"/>
<path d="M232.576 149.026L230.442 149.273L230.993 154.088L233.127 153.841L232.576 149.026Z" fill="#304787"/>
<path d="M240.339 155.294L224.316 157.149L224.011 154.484L239.692 152.104L240.339 155.294Z" fill="#192644"/>
<path d="M172.201 87.0293C171.983 87.0293 171.727 89.5496 171.727 89.5496C171.727 89.5496 169.744 90.0529 169.706 90.2459C169.669 90.4427 171.727 90.7833 171.727 90.7833C171.727 90.7833 172.178 93.8032 172.446 93.8032C172.713 93.8032 173.067 90.8552 173.067 90.8552C173.067 90.8552 174.745 90.2573 174.745 90.0984C174.745 89.9394 172.969 89.5231 172.969 89.5231C172.969 89.5231 172.638 87.0293 172.201 87.0293Z" fill="white"/>
<path d="M249.277 61.6367C249.059 61.6367 248.803 64.1571 248.803 64.1571C248.803 64.1571 246.82 64.6604 246.782 64.8534C246.744 65.0502 248.803 65.3907 248.803 65.3907C248.803 65.3907 249.254 68.4106 249.521 68.4106C249.789 68.4106 250.142 65.4626 250.142 65.4626C250.142 65.4626 251.821 64.8647 251.821 64.7058C251.821 64.5468 250.044 64.1306 250.044 64.1306C250.044 64.1306 249.713 61.6367 249.277 61.6367Z" fill="white"/>
<path d="M284.789 90.4163C284.571 90.4163 284.315 92.9366 284.315 92.9366C284.315 92.9366 282.332 93.4399 282.294 93.6329C282.257 93.8297 284.315 94.1703 284.315 94.1703C284.315 94.1703 284.767 97.1901 285.034 97.1901C285.301 97.1901 285.655 94.2422 285.655 94.2422C285.655 94.2422 287.333 93.6443 287.333 93.4853C287.333 93.3264 285.557 92.9101 285.557 92.9101C285.557 92.9101 285.229 90.4163 284.789 90.4163Z" fill="white"/>
<path d="M270.297 137.054C270.079 137.054 269.823 139.574 269.823 139.574C269.823 139.574 267.84 140.078 267.803 140.271C267.765 140.467 269.823 140.808 269.823 140.808C269.823 140.808 270.275 143.828 270.542 143.828C270.809 143.828 271.163 140.88 271.163 140.88C271.163 140.88 272.841 140.282 272.841 140.123C272.841 139.964 271.065 139.548 271.065 139.548C271.065 139.548 270.734 137.054 270.297 137.054Z" fill="white"/>
<path d="M168.942 116.187C168.724 116.187 168.468 118.708 168.468 118.708C168.468 118.708 166.485 119.211 166.447 119.404C166.41 119.601 168.468 119.941 168.468 119.941C168.468 119.941 168.92 122.961 169.187 122.961C169.454 122.961 169.808 120.013 169.808 120.013C169.808 120.013 171.486 119.415 171.486 119.256C171.486 119.098 169.71 118.681 169.71 118.681C169.71 118.681 169.383 116.187 168.942 116.187Z" fill="white"/>
<path d="M176.604 82.0151C176.472 82.0151 176.314 83.5516 176.314 83.5516C176.314 83.5516 175.106 83.8581 175.084 83.9754C175.061 84.0965 176.314 84.3046 176.314 84.3046C176.314 84.3046 176.589 86.1476 176.751 86.1476C176.912 86.1476 177.127 84.35 177.127 84.35C177.127 84.35 178.151 83.983 178.151 83.8884C178.151 83.79 177.067 83.5364 177.067 83.5364C177.067 83.5364 176.871 82.0151 176.604 82.0151Z" fill="white"/>
<path d="M231.571 65.1902C231.44 65.1902 231.282 66.7266 231.282 66.7266C231.282 66.7266 230.074 67.0331 230.051 67.1505C230.029 67.2716 231.282 67.4797 231.282 67.4797C231.282 67.4797 231.556 69.3226 231.718 69.3226C231.88 69.3226 232.095 67.5251 232.095 67.5251C232.095 67.5251 233.118 67.158 233.118 67.0634C233.118 66.965 232.034 66.7115 232.034 66.7115C232.034 66.7115 231.839 65.1902 231.571 65.1902Z" fill="white"/>
<path d="M175.347 122.193C175.215 122.193 175.057 123.729 175.057 123.729C175.057 123.729 173.849 124.036 173.827 124.153C173.804 124.274 175.057 124.482 175.057 124.482C175.057 124.482 175.332 126.325 175.494 126.325C175.656 126.325 175.87 124.528 175.87 124.528C175.87 124.528 176.894 124.161 176.894 124.066C176.894 123.968 175.81 123.714 175.81 123.714C175.81 123.714 175.614 122.193 175.347 122.193Z" fill="white"/>
<path d="M279.129 79.1428C278.998 79.1428 278.84 80.6792 278.84 80.6792C278.84 80.6792 277.632 80.9858 277.609 81.1031C277.587 81.2242 278.84 81.4323 278.84 81.4323C278.84 81.4323 279.114 83.2753 279.276 83.2753C279.438 83.2753 279.653 81.4777 279.653 81.4777C279.653 81.4777 280.676 81.1107 280.676 81.016C280.676 80.9214 279.592 80.6641 279.592 80.6641C279.592 80.6641 279.397 79.1428 279.129 79.1428Z" fill="white"/>
<path d="M266.926 132.562C266.794 132.562 266.636 134.098 266.636 134.098C266.636 134.098 265.428 134.405 265.405 134.522C265.383 134.643 266.636 134.852 266.636 134.852C266.636 134.852 266.911 136.694 267.073 136.694C267.234 136.694 267.449 134.897 267.449 134.897C267.449 134.897 268.472 134.53 268.472 134.435C268.472 134.337 267.389 134.083 267.389 134.083C267.389 134.083 267.193 132.562 266.926 132.562Z" fill="white"/>
</g>
<defs>
<clipPath id="clip0_3_1154">
<rect width="241" height="160" fill="white" transform="translate(106.531 18)"/>
</clipPath>
</defs>
</svg>
