<svg width="627" height="685" viewBox="0 0 627 685" fill="none" xmlns="http://www.w3.org/2000/svg">
<rect width="627" height="685" rx="30" fill="#00529E"/>
<g clip-path="url(#clip0_65_8)">
<path d="M393.67 473.34C386.32 482.04 375.67 486.69 363.07 486.69C344.47 486.69 332.92 480.84 314.01 461.04C287.61 455.49 269.45 434.64 269.45 407.63C269.45 375.83 294.5 352.72 328.71 352.72C362.91 352.72 387.97 375.82 387.97 407.63C387.97 430.88 374.62 449.49 354.07 457.74C357.22 461.04 360.07 462.09 363.82 462.09C368.92 462.09 374.02 459.69 378.37 455.34L393.67 473.34ZM305.16 407.64C305.16 423.99 315.66 433.89 328.71 433.89C341.76 433.89 352.26 423.99 352.26 407.64C352.26 391.29 341.76 381.39 328.71 381.39C315.66 381.38 305.16 391.28 305.16 407.64Z" fill="#FD4D69"/>
<path d="M377.12 473.34C369.77 482.04 359.12 486.69 346.52 486.69C327.92 486.69 316.37 480.84 297.46 461.04C271.06 455.49 252.9 434.64 252.9 407.63C252.9 375.83 277.95 352.72 312.16 352.72C346.36 352.72 371.42 375.82 371.42 407.63C371.42 430.88 358.07 449.49 337.52 457.74C340.67 461.04 343.52 462.09 347.27 462.09C352.37 462.09 357.47 459.69 361.82 455.34L377.12 473.34ZM288.61 407.64C288.61 423.99 299.11 433.89 312.16 433.89C325.21 433.89 335.71 423.99 335.71 407.64C335.71 391.29 325.21 381.39 312.16 381.39C299.11 381.38 288.61 391.28 288.61 407.64Z" fill="white"/>
<path d="M341.08 328.93H301.17L294.12 347.23H258.12L304.03 242.22H338.83L384.74 347.23H348.14L341.08 328.93ZM331.33 303.42L321.13 277.02L310.93 303.42H331.33Z" fill="#FD4D69"/>
<path d="M314.15 154.7V172.7H357.96V199.4H314.15V233H278.75V128H364.11V154.7H314.15Z" fill="#FD4D69"/>
<path d="M301.28 154.7V172.7H345.09V199.4H301.28V233H265.88V128H351.24V154.7H301.28Z" fill="white"/>
<path d="M330.66 328.93H290.75L283.7 347.23H247.7L293.61 242.22H328.41L374.32 347.23H337.72L330.66 328.93ZM320.91 303.42L310.71 277.02L300.51 303.42H320.91Z" fill="white"/>
<path opacity="0.56" d="M354.91 278.99L348.26 287.63C348.26 287.63 337.17 304.19 343.7 318.81C350.23 333.44 374.32 347.23 374.32 347.23H384.74L354.91 278.99Z" fill="#0F1201"/>
<path d="M319.41 506.92C424.289 506.92 509.31 504.225 509.31 500.9C509.31 497.575 424.289 494.88 319.41 494.88C214.531 494.88 129.51 497.575 129.51 500.9C129.51 504.225 214.531 506.92 319.41 506.92Z" fill="#DADADA"/>
<path d="M427.7 242.48C427.7 242.48 433.45 245.18 437.46 256.17C441.47 267.16 446.53 277.66 446.53 277.66L457.3 234.71C457.7 233.1 459.36 232.15 460.95 232.61L461 232.63C462.4 233.04 463.29 234.41 463.08 235.85L461.52 246.76L468.64 249.47C471.59 250.6 473.15 253.83 472.2 256.84L458.83 299.11C455.3 310.27 440 311.47 434.76 301.01L426.12 283.72L427.7 242.48Z" fill="#FF7E6E"/>
<path d="M446.54 277.65L443.57 289.95" stroke="#7B3C38" stroke-width="0.5231" stroke-miterlimit="10" stroke-linecap="round"/>
<path d="M437.47 256.17C433.46 245.18 427.71 242.48 427.71 242.48L426.14 283.72L426.33 284.1L443.66 271.37C441.87 267.34 439.53 261.82 437.47 256.17Z" fill="#FD4D69"/>
<path d="M443.66 271.37C443.11 270.13 442.51 268.74 441.88 267.26L426.37 277.79L426.14 283.72L426.33 284.1L443.66 271.37Z" fill="#ECECEC"/>
<path opacity="0.49" d="M439.47 306.24C444.9 309.65 452.42 308.57 456.56 303.42C454.69 301.29 451.95 299.94 448.9 299.94C444.64 299.94 441 302.54 439.47 306.24Z" fill="#CD2E2B"/>
<path d="M461.53 246.75L460.19 254.92" stroke="#7B3C38" stroke-width="0.5231" stroke-miterlimit="10" stroke-linecap="round"/>
<path d="M467.69 249.1L466.45 257.37" stroke="#7B3C38" stroke-width="0.5231" stroke-miterlimit="10" stroke-linecap="round"/>
<path opacity="0.49" d="M452.77 252.8L466.04 257.19C467.66 257.73 468.52 259.49 467.95 261.09L467.93 261.15C467.39 262.66 465.78 263.49 464.25 263.06L459.15 261.63C459.15 261.63 463.04 274 447.74 272.9L452.77 252.8Z" fill="#CD2E2B"/>
<path d="M428.88 259.82L426.69 269.28L426.14 283.72L433.36 298.16C432.59 279.73 428.88 259.82 428.88 259.82Z" fill="#0F1201"/>
<path d="M427.7 321.47L429.68 330.45L457.07 394.04C461.12 403.45 459.79 414.31 453.59 422.47L404.76 486.69L375.42 466.46L426.81 389L410.61 340.92L409.41 320.18L427.7 321.47Z" fill="#2F2F35"/>
<path d="M379.84 321.47C379.84 321.47 376.98 337.77 389.09 381.72C401.2 425.66 417.94 488.78 417.94 488.78H455.26L413.41 341.96C413.41 341.96 415.15 334.97 415.5 323.29C404.69 314.41 379.84 321.47 379.84 321.47Z" fill="#5A5A66"/>
<path d="M409.42 320.17C397.4 316.48 379.84 321.47 379.84 321.47C379.84 321.47 379.29 324.62 379.7 331.88C413.01 331.37 427.71 321.47 427.71 321.47L409.42 320.17Z" fill="#0F1201"/>
<path d="M407.66 234.24L427.71 242.48C427.71 242.48 432.16 292.44 427.71 321.47C393.45 329.58 379.85 321.47 379.85 321.47C379.85 321.47 384.56 259.67 381.42 245.45C398.67 238.12 398.67 238.12 398.67 238.12L407.66 234.24Z" fill="white"/>
<path d="M394.62 239.84L413.17 251.48V236.52L407.66 234.25L398.67 238.12C398.66 238.12 398.66 238.12 394.62 239.84Z" fill="#ECECEC"/>
<path d="M407.66 203.9C407.66 203.9 417.27 205.9 416.26 213.14C414.23 221.55 412.01 227.89 409 228.94C405.99 229.99 407.37 219.72 407.37 219.72L406.32 204.49L407.66 203.9Z" fill="#2F2F35"/>
<path d="M409.95 209.59C409.95 209.59 410.79 202.66 404.92 201.22C399.06 199.78 395.67 199.45 393.96 195.99C390.75 203.58 392.41 206.87 394.91 209.44C402.53 210.5 409.95 209.59 409.95 209.59Z" fill="#5A5A66"/>
<path d="M410.44 223.04V245.45L398.66 238.12V228.25L410.44 223.04Z" fill="#FF7E6E"/>
<path d="M388.65 274.48L382.32 274.97C382.01 286.38 381.35 298.6 380.78 307.64C387.63 296.65 388.65 274.48 388.65 274.48Z" fill="#0F1201"/>
<path d="M398.66 236.42C406.67 232.8 409.95 224.16 409.95 224.16L409.76 223.34L398.66 228.25V236.42Z" fill="#0F1201"/>
<path d="M394.92 209.44C394.92 209.44 391.08 226.35 393.87 231.76C401.89 231.24 407.65 230.19 410.44 223.04C410.44 215.89 409.57 216.76 410.44 214.67C411.31 212.58 413.06 209.61 408.7 208.57C404.34 207.52 398.06 207 394.92 209.44Z" fill="#FF7E6E"/>
<path d="M411.93 223.71C413.764 223.71 415.25 222.224 415.25 220.39C415.25 218.556 413.764 217.07 411.93 217.07C410.096 217.07 408.61 218.556 408.61 220.39C408.61 222.224 410.096 223.71 411.93 223.71Z" fill="#FF7E6E"/>
<path d="M393.4 218.21C393.4 218.21 395.43 217.78 396.48 217.69" stroke="#592A29" stroke-width="0.5231" stroke-miterlimit="10" stroke-linecap="round"/>
<path d="M402.2 217.07C402.2 217.07 404.69 216.72 406.79 217.07" stroke="#592A29" stroke-width="0.5231" stroke-miterlimit="10" stroke-linecap="round"/>
<path d="M402.2 212.8C402.2 213.12 402.46 213.38 402.78 213.37C403.91 213.33 406.4 213.44 407.66 214.89C407.66 214.53 407.66 214.25 407.66 214.02C407.66 213.36 407.31 212.76 406.73 212.43C405.95 211.99 404.72 211.48 403.1 211.4C402.62 211.38 402.2 211.76 402.2 212.24V212.8Z" fill="#5A5A66"/>
<path d="M393.97 214.39C394.72 214.17 395.43 214.06 395.91 214.01C396.23 213.98 396.46 213.69 396.42 213.37L396.35 212.82C396.29 212.34 395.83 212.01 395.35 212.1C394.99 212.16 394.66 212.25 394.34 212.35C394.22 212.96 394.09 213.65 393.97 214.39Z" fill="#5A5A66"/>
<path d="M397.43 219.33L396.84 222.67L399.13 222.27" stroke="#7B3C38" stroke-width="0.5231" stroke-miterlimit="10" stroke-linecap="round"/>
<path d="M396.42 224.96C396.42 224.96 400.96 224.28 403.32 223.34" stroke="#7B3C38" stroke-width="0.5231" stroke-miterlimit="10" stroke-linecap="round"/>
<path d="M381.41 245.45C381.41 245.45 375.05 247.8 368.77 264.02C364.65 274.66 357.46 293.54 353 305.28C350.62 311.55 352.25 318.63 357.13 323.23L384.81 349.29L394.62 331.16L373.83 310.58L388.65 274.49C388.65 274.48 391.78 251.47 381.41 245.45Z" fill="#FF7E6E"/>
<path d="M388.65 274.48C388.65 274.48 391.79 251.47 381.41 245.45C381.41 245.45 375.05 247.8 368.77 264.02C366.89 268.88 364.36 275.47 361.75 282.31C367 284.95 374.91 289.29 380.63 294.01L388.65 274.48Z" fill="#FD4D69"/>
<path d="M363.53 277.65C362.95 279.18 362.35 280.73 361.75 282.3C367 284.94 374.91 289.28 380.63 294L382.54 289.36C376.51 283.74 367.82 279.53 363.53 277.65Z" fill="#ECECEC"/>
<path opacity="0.49" d="M353.44 304.12C353.29 304.51 353.14 304.91 353 305.28C350.62 311.55 352.25 318.63 357.13 323.23L357.21 323.3C358.99 321.11 360.05 318.32 360.05 315.29C360.05 310.47 357.38 306.28 353.44 304.12Z" fill="#CD2E2B"/>
<path d="M373.82 310.57L369.46 307.03" stroke="#7B3C38" stroke-width="0.5231" stroke-miterlimit="10" stroke-linecap="round"/>
<path d="M417.94 488.78L421.78 500.99H472.5C472.5 500.99 470.61 488.78 455.26 488.78C439.91 488.78 417.94 488.78 417.94 488.78Z" fill="#FD4D69"/>
<path d="M456.55 490.58C456.55 491.57 455.74 492.38 454.75 492.38H440.3C439.31 492.38 438.5 491.57 438.5 490.58C438.5 489.59 439.31 488.78 440.3 488.78H454.74C455.74 488.78 456.55 489.59 456.55 490.58Z" fill="#ECECEC"/>
<path d="M375.42 466.46L369.81 475.88L403.99 500.99H417.4C417.4 500.99 418.43 489.83 404.76 486.69C377.71 468.04 375.42 466.46 375.42 466.46Z" fill="#FD4D69"/>
<path opacity="0.47" d="M394.92 209.44C394.92 209.44 391.08 226.35 393.87 231.76C397.06 231.55 399.89 231.25 402.32 230.53C406.82 222.76 406.64 211.86 406.41 208.11C402.37 207.43 397.55 207.39 394.92 209.44Z" fill="white"/>
<path opacity="0.26" d="M429.73 425.7C432.27 425.7 434.67 425.11 436.82 424.09L427.87 392.69C419.6 393.62 413.17 400.62 413.17 409.14C413.17 418.29 420.58 425.7 429.73 425.7Z" fill="#ECECEC"/>
<path d="M444.3 409.14C444.3 415.34 447.71 420.73 452.75 423.57L453.59 422.46C459.79 414.3 461.12 403.44 457.07 394.03L456.68 393.13C449.56 394.99 444.3 401.44 444.3 409.14Z" fill="#5A5A66"/>
<path d="M382.51 353.61C383.26 357.67 384.2 362.16 385.36 367.11L406.97 328.17L396.73 327.26L382.51 353.61Z" fill="#0F1201"/>
<path d="M480.87 171.24H435.8C432.42 171.24 429.69 173.98 429.69 177.35V197.79C429.69 201.17 432.43 203.9 435.8 203.9H447.05L443.59 214.39L457.6 203.9H480.87C484.25 203.9 486.98 201.16 486.98 197.79V177.35C486.98 173.98 484.24 171.24 480.87 171.24Z" fill="#5A5A66"/>
<path d="M439.47 179.65H477.8" stroke="white" stroke-width="1.0462" stroke-miterlimit="10"/>
<path d="M439.47 187.29H477.8" stroke="white" stroke-width="1.0462" stroke-miterlimit="10"/>
<path d="M439.47 194.94H466.45" stroke="white" stroke-width="1.0462" stroke-miterlimit="10"/>
<path d="M427.7 321.47C432.15 292.44 427.7 242.48 427.7 242.48L424.99 241.37C424.99 241.37 425.05 295.98 393.07 324.75C400.77 325.49 412.08 325.17 427.7 321.47Z" fill="#FD4D69"/>
<path d="M389.8 359.11L424.99 488.78" stroke="#9393A5" stroke-width="1.0462" stroke-miterlimit="10"/>
<path d="M401.47 427.2L414.11 474.39L405.91 485.18L393.62 439.03L401.47 427.2Z" fill="#0F1201"/>
<path opacity="0.47" d="M368.77 264.02C364.65 274.66 357.46 293.54 353 305.28C350.62 311.55 352.25 318.63 357.13 323.23L364.12 329.81C352.85 319.2 362.19 300.64 371.64 277.66C381.09 254.67 381.4 245.46 381.4 245.46C381.4 245.46 375.04 247.8 368.77 264.02Z" fill="white"/>
<path d="M394.62 331.18L381.21 345.89L384.71 349.19L394.62 331.18Z" fill="#AA443C"/>
<path d="M226.18 321.11C226.18 321.11 240.25 405.68 239.2 487.81C208.86 487.81 208.86 487.81 208.86 487.81V358.42H205.75V321.8L226.18 321.11Z" fill="#5A5A66"/>
<path d="M208.86 487.81V501.47H254.74C254.74 501.47 253.68 487.81 239.2 487.81C224.72 487.81 208.86 487.81 208.86 487.81Z" fill="#FD4D69"/>
<path d="M240.65 489.74C240.65 490.81 239.79 491.67 238.72 491.67H220.73C219.66 491.67 218.8 490.81 218.8 489.74C218.8 488.67 219.66 487.81 220.73 487.81H238.72C239.78 487.81 240.65 488.67 240.65 489.74Z" fill="#ECECEC"/>
<path d="M202.64 487.81V501.47H156.76C156.76 501.47 157.82 487.81 172.3 487.81C186.78 487.81 202.64 487.81 202.64 487.81Z" fill="#FD4D69"/>
<path d="M170.85 489.74C170.85 490.81 171.71 491.67 172.78 491.67H190.77C191.84 491.67 192.7 490.81 192.7 489.74C192.7 488.67 191.84 487.81 190.77 487.81H172.78C171.71 487.81 170.85 488.67 170.85 489.74Z" fill="#ECECEC"/>
<path d="M239.2 487.81C240.25 405.68 226.18 321.11 226.18 321.11L220.96 321.29C223.88 343.76 233.85 425.49 233.22 487.81C235.07 487.81 237.05 487.81 239.2 487.81Z" fill="#9191A3"/>
<path d="M226.18 321.11L213.77 321.53C214.44 327.33 217.3 339.15 229.37 342.94C227.53 329.26 226.18 321.11 226.18 321.11Z" fill="#2F2F35"/>
<path opacity="0.49" d="M223.71 428.87C229.2 428.87 233.65 424.42 233.65 418.93C233.65 413.44 229.2 408.99 223.71 408.99C218.22 408.99 213.77 413.44 213.77 418.93C213.77 424.42 218.22 428.87 223.71 428.87Z" fill="#2F2F35"/>
<path opacity="0.57" d="M208.86 487.81C208.86 487.81 208.86 487.81 239.2 487.81C239.26 483.28 239.27 478.74 239.24 474.21H208.86V487.81Z" fill="#2F2F35"/>
<path d="M185.32 321.11C185.32 321.11 171.25 405.68 172.3 487.81C202.64 487.81 202.64 487.81 202.64 487.81V358.42H205.75V321.8L185.32 321.11Z" fill="#5A5A66"/>
<path d="M172.3 487.81C171.25 405.68 185.32 321.11 185.32 321.11L190.54 321.29C187.62 343.76 177.65 425.49 178.28 487.81C176.43 487.81 174.45 487.81 172.3 487.81Z" fill="#414149"/>
<path d="M185.32 321.11L197.73 321.53C197.06 327.33 194.2 339.15 182.13 342.94C183.96 329.26 185.32 321.11 185.32 321.11Z" fill="#2F2F35"/>
<path opacity="0.49" d="M187.79 428.87C193.28 428.87 197.73 424.42 197.73 418.93C197.73 413.44 193.28 408.99 187.79 408.99C182.3 408.99 177.85 413.44 177.85 418.93C177.85 424.42 182.3 428.87 187.79 428.87Z" fill="#2F2F35"/>
<path opacity="0.57" d="M202.64 487.81C202.64 487.81 202.64 487.81 172.3 487.81C172.24 483.28 172.23 478.74 172.26 474.21H202.64V487.81Z" fill="#2F2F35"/>
<path d="M209.01 323.42H202.64V358.43H209.01V323.42Z" fill="#2F2F35"/>
<path d="M185.32 321.11C185.32 321.11 185.01 322.96 184.49 326.36C209.27 333.23 226.17 321.11 226.17 321.11L205.74 321.81L185.32 321.11Z" fill="#0F1201"/>
<path d="M140.04 273.99H121.79C120.25 273.99 119 272.74 119 271.2V271.14C119 269.6 120.25 268.35 121.79 268.35H140.04V273.99Z" fill="#6D3E38"/>
<path d="M191.33 248.92L191.23 248.89C185.65 247.13 179.67 250.01 177.57 255.47L164.65 289.03L153.86 267.23C152.46 264.4 149.58 262.61 146.43 262.61H135.85C134.13 262.61 132.74 264 132.74 265.72V265.75H125C123.21 265.75 121.76 267.2 121.76 268.99V269.06C121.76 270.85 123.21 272.3 125 272.3H136.93L156.35 309.26C160.52 317.19 171.96 316.95 175.78 308.85L191.32 275.97V248.92H191.33Z" fill="#915648"/>
<path d="M153.86 267.22C152.46 264.39 149.58 262.6 146.43 262.6H135.85C134.13 262.6 132.74 263.99 132.74 265.71H138.33C138.33 265.71 142.37 270.69 148.1 269.95C150.63 269.62 152.68 268.76 154.19 267.9L153.86 267.22Z" fill="#A05D50"/>
<path d="M164.66 289.02L168.75 296.69" stroke="#0F1201" stroke-width="0.431" stroke-miterlimit="10"/>
<path opacity="0.55" d="M164.57 305.32C161.29 305.32 158.24 306.26 155.63 307.86L156.35 309.24C160.43 317.01 171.47 316.91 175.52 309.3C172.56 306.82 168.74 305.32 164.57 305.32Z" fill="#6B3F36"/>
<path d="M191.33 259.48L189.62 254.62C189.62 254.62 177.98 276.43 183.67 292.14L191.32 275.94V259.48H191.33Z" fill="#0F1201"/>
<path d="M271.46 273.99H289.71C291.25 273.99 292.5 272.74 292.5 271.2V271.14C292.5 269.6 291.25 268.35 289.71 268.35H271.46V273.99Z" fill="#6D3E38"/>
<path d="M220.17 248.92L220.27 248.89C225.85 247.13 231.83 250.01 233.93 255.47L246.85 289.03L257.64 267.23C259.04 264.4 261.92 262.61 265.07 262.61H275.64C277.36 262.61 278.75 264 278.75 265.72V265.75H286.5C288.29 265.75 289.74 267.2 289.74 268.99V269.06C289.74 270.85 288.29 272.3 286.5 272.3H274.57L255.15 309.26C250.98 317.19 239.54 316.95 235.71 308.85L220.17 275.97V248.92Z" fill="#915648"/>
<path d="M257.63 267.22C259.03 264.39 261.91 262.6 265.06 262.6H275.63C277.35 262.6 278.74 263.99 278.74 265.71H273.15C273.15 265.71 269.11 270.69 263.38 269.95C260.85 269.62 258.8 268.76 257.29 267.9L257.63 267.22Z" fill="#A05D50"/>
<path d="M246.84 289.02L242.74 296.69" stroke="#0F1201" stroke-width="0.431" stroke-miterlimit="10"/>
<path opacity="0.55" d="M246.93 305.32C250.21 305.32 253.26 306.26 255.87 307.86L255.15 309.24C251.07 317.01 240.03 316.91 235.98 309.3C238.94 306.82 242.76 305.32 246.93 305.32Z" fill="#6B3F36"/>
<path d="M220.17 259.48L221.88 254.62C221.88 254.62 233.52 276.43 227.83 292.14L220.18 275.94V259.48H220.17Z" fill="#0F1201"/>
<path d="M221.56 290.07C231.94 284.14 220.17 248.92 220.17 248.92L205.75 253.8L191.33 248.92C191.33 248.92 179.57 284.14 189.94 290.07C185.32 321.11 185.32 321.11 185.32 321.11C185.32 321.11 192.35 325.64 205.75 325.64C219.15 325.64 226.18 321.11 226.18 321.11C226.18 321.11 226.18 321.11 221.56 290.07Z" fill="white"/>
<path d="M216.55 250.14L205.75 253.8L194.95 250.14C193.6 254.81 191.42 267.17 205.75 268.36C220.08 267.17 217.9 254.81 216.55 250.14Z" fill="#915648"/>
<path d="M221.56 290.07C221.56 290.07 214.79 292.35 211.64 292.86C208.5 293.37 215.42 295.98 222.39 295.7C221.7 291.07 221.56 290.07 221.56 290.07Z" fill="#FD4D69"/>
<path d="M211.3 232.48H200.49V259.03H211.3V232.48Z" fill="#915648"/>
<path d="M211.3 232.48H200.49V236.54C200.49 236.54 206.51 244.35 211.3 247.35V232.48Z" fill="#0F1201"/>
<path d="M191.27 221.28C195.473 221.28 198.88 217.873 198.88 213.67C198.88 209.467 195.473 206.06 191.27 206.06C187.067 206.06 183.66 209.467 183.66 213.67C183.66 217.873 187.067 221.28 191.27 221.28Z" fill="#4C1D1D"/>
<path opacity="0.19" d="M191.27 209.66C191.27 208.38 190.95 207.17 190.39 206.12C186.6 206.56 183.66 209.77 183.66 213.68C183.66 214.96 183.98 216.17 184.54 217.22C188.32 216.78 191.27 213.57 191.27 209.66Z" fill="#FEFEFE"/>
<path d="M200.57 237.28C200.57 237.28 206.45 242.9 215.81 242.81C217.19 242.8 218.34 241.75 218.43 240.37C219.4 227.02 218.4 214.23 207.64 212.05C201.33 210.97 187.19 217.12 194.57 230.66C197.65 235.28 200.57 237.28 200.57 237.28Z" fill="#915648"/>
<path d="M207.65 212.06C201.34 210.98 187.2 217.13 194.58 230.67C195.37 231.85 196.14 232.86 196.86 233.71C199.28 218.08 210.43 216.63 214.96 216.7C213.27 214.36 210.91 212.72 207.65 212.06Z" fill="#4C1D1D"/>
<path d="M195.47 231.93C195.95 232.58 196.42 233.17 196.86 233.7C199.28 218.07 210.43 216.62 214.96 216.69C213.38 214.51 211.2 212.94 208.25 212.21C197.66 217.52 195.73 227.12 195.47 231.93Z" fill="#ECECEC"/>
<path d="M200.57 234.86C200.57 237.09 198.76 238.9 196.53 238.9C194.3 238.9 192.49 237.09 192.49 234.86C192.49 232.63 194.3 230.82 196.53 230.82C198.76 230.82 200.57 232.63 200.57 234.86Z" fill="#915648"/>
<path d="M217.06 234.84L209.45 236C209.45 236 216.6 239.18 217.06 234.84Z" fill="#ECECEC"/>
<path d="M211.18 228.05C211.18 228.05 208.72 227.43 206.26 228.97" stroke="#2B1010" stroke-width="0.5231" stroke-miterlimit="10" stroke-linecap="round"/>
<path d="M215.95 227.93C215.95 227.93 216.47 227.31 218.44 227.38" stroke="#2B1010" stroke-width="0.5231" stroke-miterlimit="10" stroke-linecap="round"/>
<path d="M209.45 222.95C209.45 222.95 206.41 222.36 203.72 225.36" stroke="#4C1D1D" stroke-width="1.0462" stroke-miterlimit="10" stroke-linecap="round"/>
<path d="M215.49 222.36C215.49 222.36 216.74 222.16 217.69 222.95" stroke="#4C1D1D" stroke-width="1.0462" stroke-miterlimit="10" stroke-linecap="round"/>
<path d="M214.57 229.43L215.49 231.51L213.26 231.89" stroke="#4C1D1D" stroke-width="1.0462" stroke-miterlimit="10"/>
<path opacity="0.27" d="M218.59 238.03C218.63 237.35 218.65 236.68 218.68 236.01C218.68 235.92 218.69 235.82 218.69 235.73C218.71 235.07 218.72 234.41 218.73 233.76C218.73 233.67 218.73 233.58 218.73 233.49C218.73 232.83 218.73 232.17 218.71 231.53C218.71 231.46 218.71 231.4 218.7 231.34C218.68 230.67 218.65 230 218.61 229.34C218.61 229.33 218.61 229.31 218.61 229.3C218.52 227.93 218.38 226.61 218.17 225.34C218.17 225.32 218.16 225.3 218.16 225.28C218.06 224.66 217.94 224.06 217.81 223.48C217.8 223.44 217.79 223.41 217.79 223.37C217.66 222.79 217.51 222.22 217.34 221.68C217.33 221.65 217.32 221.62 217.31 221.59C217.14 221.03 216.95 220.49 216.74 219.97C216.74 219.96 216.73 219.95 216.73 219.94C216.08 218.34 215.24 216.91 214.18 215.72L214.17 215.71C213.82 215.32 213.45 214.96 213.05 214.62C213.03 214.61 213.02 214.59 213 214.58C212.61 214.25 212.19 213.94 211.74 213.67C211.72 213.66 211.7 213.65 211.69 213.64C211.24 213.36 210.76 213.11 210.25 212.89L199.86 221.31C199.86 221.31 202.37 235.71 211.47 242.45C211.99 242.55 212.53 242.62 213.09 242.69C213.32 242.72 213.56 242.74 213.8 242.76C213.99 242.78 214.18 242.79 214.37 242.8C214.85 242.83 215.33 242.84 215.83 242.84C217.21 242.83 218.36 241.78 218.45 240.4C218.5 239.69 218.55 238.98 218.58 238.28C218.58 238.18 218.58 238.11 218.59 238.03Z" fill="white"/>
<path d="M194.79 234.84L198.88 235.98" stroke="#4C1D1D" stroke-width="0.5231" stroke-miterlimit="10" stroke-linecap="round"/>
<path d="M198.88 238.54C198.88 239.32 198.25 239.95 197.47 239.95C196.69 239.95 196.06 239.32 196.06 238.54C196.06 237.76 196.69 237.13 197.47 237.13C198.25 237.13 198.88 237.76 198.88 238.54Z" fill="#FFC801"/>
<g opacity="0.27">
<path d="M233.65 273.99C236.54 293.01 241.16 298.86 241.16 298.86L246.73 288.72L233.93 255.46C231.83 250 225.85 247.12 220.27 248.88L220.17 248.91C220.17 248.92 230.75 254.97 233.65 273.99Z" fill="white"/>
</g>
<g opacity="0.55">
<path d="M177.85 273.99C174.96 293.01 170.34 298.86 170.34 298.86L164.77 288.72L177.57 255.46C179.67 250 185.65 247.12 191.23 248.88L191.33 248.91C191.33 248.92 180.74 254.97 177.85 273.99Z" fill="#6B3F36"/>
</g>
<path d="M189.94 290.07C189.94 290.07 196.71 292.35 199.86 292.86C203 293.37 196.08 295.98 189.11 295.7C189.79 291.07 189.94 290.07 189.94 290.07Z" fill="#FD4D69"/>
<path d="M190.68 190.75H156.3C151.74 190.75 148.04 187.05 148.04 182.49V155.19C148.04 150.63 151.74 146.93 156.3 146.93H190.68C195.24 146.93 198.94 150.63 198.94 155.19V182.48C198.95 187.05 195.25 190.75 190.68 190.75Z" fill="#5A5A66"/>
<path d="M175.46 162.9C175.46 161.59 174.19 160.91 172.63 160.91C170.81 160.91 169.12 162.01 168.23 163.78L160.71 160.02C162.87 155.96 167.13 153.17 173.9 153.17C180.54 153.17 185.48 155.96 185.48 161.24C185.48 167.71 178.72 168.85 178.72 172.1H170.01C170.01 167 175.46 165.48 175.46 162.9ZM168.78 178.79C168.78 175.96 171.06 173.8 174.36 173.8C177.66 173.8 179.94 175.96 179.94 178.79C179.94 181.58 177.66 183.86 174.36 183.86C171.06 183.87 168.78 181.58 168.78 178.79Z" fill="white"/>
<path d="M159.97 185.62L171.46 200.46L169.49 185.62H159.97Z" fill="#5A5A66"/>
</g>
<defs>
<clipPath id="clip0_65_8">
<rect width="390.31" height="378.91" fill="white" transform="translate(119 128)"/>
</clipPath>
</defs>
</svg>
